<?xml version="1.0" encoding="utf-8"?>
<!-- Generator: Adobe Illustrator 19.0.0, SVG Export Plug-In . SVG Version: 6.00 Build 0)  -->
<svg version="1.0" id="Calque_1" xmlns="http://www.w3.org/2000/svg" xmlns:xlink="http://www.w3.org/1999/xlink" x="0px" y="0px"
	 viewBox="0 0 140 62.7" style="enable-background:new 0 0 140 62.7;" xml:space="preserve">
<style type="text/css">
	.st0{clip-path:url(#SVGID_2_);fill:#E24301;}
	.st1{clip-path:url(#SVGID_2_);fill:#BCCF11;}
</style>
<g>
	<defs>
		<rect id="SVGID_1_" x="4.7" y="7.5" width="131" height="52.1"/>
	</defs>
	<clipPath id="SVGID_2_">
		<use xlink:href="#SVGID_1_"  style="overflow:visible;"/>
	</clipPath>
	<path class="st0" d="M22.8,35.5c0,0-5-9.4-17.5-10.7c0,0,1.7,1.1,0.2,5.4c-1.8,5.1-1.1,14.5,4.2,19.3c0,0,5.4,4.9,10.7,2.9
		c0.2-5.7-5.3-13.9-5.3-13.9c2.2,1.6,5.8,8.5,7.7,12.4C25.8,48.5,28.1,43.4,22.8,35.5"/>
	<path class="st0" d="M62.6,59.1c0,0,10-1.1,15.6-11c0,0-1.6,1.1-4.9-1.6c-3.9-3.1-12.5-5.6-18.6-2.7c0,0-6.2,2.8-6.3,7.9
		c5,2,14.1,0.1,14.1,0.1c-2.2,1.4-9.6,2.1-13.7,2.3C50.1,57.4,53.7,60.9,62.6,59.1"/>
	<path class="st0" d="M91.8,29.5c0,0,8.7-5.1,9.9-16.1c0,0-1,1.6-5.1,0.6c-4.8-1.2-13.6,0.2-18.1,5.2c0,0-4.6,5.1-2.6,9.6
		c5.4-0.2,13-5.7,13-5.7c-1.4,2.1-8,5.8-11.6,7.7C79.6,33.1,84.4,34.8,91.8,29.5"/>
	<path class="st1" d="M129.4,26.2c0,0,5.7-3.4,6.3-10.9c0,0-0.6,1.1-3.4,0.4c-3.2-0.9-9,0-11.9,3.3c0,0-3,3.4-1.6,6.5
		c3.6-0.1,8.5-3.8,8.5-3.8c-0.9,1.4-5.2,3.8-7.6,5.1C121.3,28.5,124.5,29.7,129.4,26.2"/>
	<path class="st1" d="M53.4,23.5c0,0-0.8-9.9-12.1-16c0,0,1.2,1.6-2.1,4.7c-3.9,3.6-7.3,11.9-4.3,18c0,0,3,6.3,9,6.7
		c2.7-4.8,0.9-13.9,0.9-13.9c1.5,2.2,1.9,9.5,2,13.6C50.6,35.7,55,32.3,53.4,23.5"/>
</g>
</svg>
