<?xml version="1.0" encoding="utf-8"?>
<!-- Generator: Adobe Illustrator 19.0.0, SVG Export Plug-In . SVG Version: 6.00 Build 0)  -->
<svg version="1.0" id="Calque_1" xmlns="http://www.w3.org/2000/svg" xmlns:xlink="http://www.w3.org/1999/xlink" x="0px" y="0px"
	 viewBox="0 0 428 217" style="enable-background:new 0 0 428 217;" xml:space="preserve">
<style type="text/css">
	.st0{clip-path:url(#XMLID_149_);}
	.st1{opacity:0.7;clip-path:url(#XMLID_150_);}
	.st2{clip-path:url(#XMLID_151_);}
	.st3{clip-path:url(#XMLID_152_);fill:#717124;}
	.st4{clip-path:url(#XMLID_152_);fill:none;stroke:#717124;stroke-width:0;}
	.st5{clip-path:url(#XMLID_153_);}
	.st6{clip-path:url(#XMLID_154_);fill:#717124;}
	.st7{clip-path:url(#XMLID_154_);fill:none;stroke:#717124;stroke-width:0;}
	.st8{clip-path:url(#XMLID_155_);}
	.st9{clip-path:url(#XMLID_156_);fill:#717124;}
	.st10{clip-path:url(#XMLID_156_);fill:none;stroke:#717124;stroke-width:0;}
	.st11{clip-path:url(#XMLID_157_);}
	.st12{clip-path:url(#XMLID_158_);fill:#717124;}
	.st13{clip-path:url(#XMLID_158_);fill:none;stroke:#717124;stroke-width:0;}
	.st14{clip-path:url(#XMLID_159_);}
	.st15{clip-path:url(#XMLID_160_);fill:#717124;}
	.st16{clip-path:url(#XMLID_160_);fill:none;stroke:#717124;stroke-width:0;}
	.st17{clip-path:url(#XMLID_161_);}
	.st18{clip-path:url(#XMLID_162_);fill:#717124;}
	.st19{clip-path:url(#XMLID_162_);fill:none;stroke:#717124;stroke-width:0;}
	.st20{clip-path:url(#XMLID_163_);}
	.st21{clip-path:url(#XMLID_164_);fill:#717124;}
	.st22{clip-path:url(#XMLID_164_);fill:none;stroke:#717124;stroke-width:0;}
	.st23{clip-path:url(#XMLID_165_);}
	.st24{clip-path:url(#XMLID_166_);fill:#717124;}
	.st25{clip-path:url(#XMLID_166_);fill:none;stroke:#717124;stroke-width:0;}
	.st26{clip-path:url(#XMLID_167_);}
	.st27{clip-path:url(#XMLID_168_);fill:#717124;}
	.st28{clip-path:url(#XMLID_168_);fill:none;stroke:#717124;stroke-width:0;}
	.st29{clip-path:url(#XMLID_169_);}
	.st30{clip-path:url(#XMLID_170_);fill:#717124;}
	.st31{clip-path:url(#XMLID_170_);fill:none;stroke:#717124;stroke-width:0;}
	.st32{clip-path:url(#XMLID_171_);}
	.st33{clip-path:url(#XMLID_172_);fill:#717124;}
	.st34{clip-path:url(#XMLID_172_);fill:none;stroke:#717124;stroke-width:0;}
	.st35{clip-path:url(#XMLID_173_);}
	.st36{clip-path:url(#XMLID_174_);fill:#717124;}
	.st37{clip-path:url(#XMLID_174_);fill:none;stroke:#717124;stroke-width:0;}
	.st38{clip-path:url(#XMLID_175_);}
	.st39{clip-path:url(#XMLID_176_);fill:#717124;}
	.st40{clip-path:url(#XMLID_176_);fill:none;stroke:#717124;stroke-width:0;}
</style>
<g id="XMLID_2_">
	<defs>
		<rect id="XMLID_3_" x="-116.2" y="-1.1" width="605.6" height="211.8"/>
	</defs>
	<clipPath id="XMLID_149_">
		<use xlink:href="#XMLID_3_"  style="overflow:visible;"/>
	</clipPath>
	<g id="XMLID_4_" class="st0">
		<defs>
			<rect id="XMLID_5_" x="6.3" y="10.3" width="407.5" height="185.7"/>
		</defs>
		<clipPath id="XMLID_150_">
			<use xlink:href="#XMLID_5_"  style="overflow:visible;"/>
		</clipPath>
		<g id="XMLID_114_" class="st1">
			<g id="XMLID_115_">
				<defs>
					<rect id="XMLID_116_" x="199" y="152.5" width="32.8" height="5.1"/>
				</defs>
				<clipPath id="XMLID_151_">
					<use xlink:href="#XMLID_116_"  style="overflow:visible;"/>
				</clipPath>
				<g id="XMLID_117_" class="st2">
					<defs>
						<rect id="XMLID_118_" x="199" y="152.5" width="32.8" height="5.1"/>
					</defs>
					<clipPath id="XMLID_152_">
						<use xlink:href="#XMLID_118_"  style="overflow:visible;"/>
					</clipPath>
					<path id="XMLID_122_" class="st3" d="M201.3,155.4c0.3,0,0.6-0.1,0.8-0.1c0.6-0.2,1.1-0.2,1.6-0.5c0.6-0.4,1.3-0.7,1.7-1.2
						c0.1-0.2,0.2-0.2,0.5-0.1c0.3,0.1,0.5,0.3,0.7,0.5c0.5,0.5,0.8,1,1.2,1.6c0.3,0.5,0.7,1.1,1.2,1.5c0.5,0.4,1.2,0.6,1.9,0.4
						c1.3-0.3,2.1-1.4,3.1-1.8c0.6-0.3,1.1-0.4,1.8-0.2c0.6,0.1,1.4,0.4,2.1,0.6c1.1,0.3,3.2,0.7,4.2,0.7c-1.3-0.1-2.6-0.4-3.7-0.7
						c2.6,0.6,5.4,0.9,8.1,0.6c-2.5,0.2-5,0-7.3-0.6c-0.6-0.2-1.2-0.3-1.7-0.5c-0.6-0.2-1.1-0.4-1.7-0.5c-0.6-0.1-1.1-0.1-1.7,0.1
						c-0.5,0.2-1,0.5-1.5,0.9c0.5-0.4,1.1-0.8,1.8-1.1c0.7-0.2,1.5-0.1,2.1,0.1c1.4,0.5,2.8,0.9,4.3,1.2c3,0.5,6,0.4,8.6-0.2
						c0.4-0.1,0.8-0.2,1.1-0.3c-2.4,0.8-5.4,1.1-8.4,0.7c-1.5-0.2-2.9-0.5-4.3-1c-0.7-0.2-1.4-0.5-2.1-0.6c-0.7-0.1-1.5,0.1-2.1,0.5
						c-1.1,0.7-2,1.7-3,1.7c-0.5,0-1-0.2-1.3-0.6c-0.4-0.4-0.7-0.9-1.1-1.4c-0.4-0.6-0.8-1.2-1.4-1.7c-0.2-0.1-0.3-0.2-0.5-0.3
						c-0.2-0.1-0.6-0.2-0.9-0.3l-0.3,0.3l-0.2,0.2c-0.1,0.1-0.1,0.1-0.1,0.1c-0.1,0.1-0.2,0.2-0.4,0.3c-0.5,0.4-1.1,0.7-1.7,0.9
						c-0.5,0.2-1.3,0.4-2.1,0.4c-0.7,0-1.4,0-1.6,0.1c0.4,0.1,0.8,0.2,1.2,0.2c-0.1,0-0.3,0-0.5,0c0.2,0,0.3,0.1,0.5,0.1
						c-0.1,0-0.3,0-0.3,0c0.2,0,0.5,0,0.6,0c0.1,0,0.5-0.1,0.6-0.1c-0.3,0.1-0.7,0.1-1,0.2c0.1,0,0.2,0,0.3,0c-0.1,0-0.4,0-0.5,0
						c0.3,0,0.5,0,0.8,0c0.2,0,0.4,0,0.7-0.1c-0.3,0.1-0.6,0.1-0.8,0.2c0.1,0,0.3,0,0.4,0c0,0,0,0,0,0
						C201.1,155.4,201.2,155.4,201.3,155.4C201.2,155.4,201.2,155.4,201.3,155.4L201.3,155.4"/>
					<path id="XMLID_121_" class="st3" d="M200.9,154.8c0.3,0,0.6,0,0.8-0.1"/>
					<path id="XMLID_120_" class="st4" d="M213.8,155.1c0,0,0.2-0.1,0.6-0.3c0.4-0.1,1-0.2,1.7,0c0.7,0.2,1.5,0.5,2.3,0.7
						c0.9,0.2,1.8,0.4,2.8,0.6c2,0.3,4.2,0.3,6.1,0.1c1.9-0.2,3.5-0.7,4.4-1.2"/>
					<path id="XMLID_119_" class="st4" d="M220,156.1c0,0,0.3,0.1,0.9,0.2c0.6,0.1,1.4,0.2,2.3,0.2c1.9,0.1,4.3-0.1,6.4-0.7"/>
				</g>
			</g>
		</g>
		<g id="XMLID_105_" class="st1">
			<g id="XMLID_106_">
				<defs>
					<rect id="XMLID_107_" x="201.1" y="50.7" width="70.3" height="51.3"/>
				</defs>
				<clipPath id="XMLID_153_">
					<use xlink:href="#XMLID_107_"  style="overflow:visible;"/>
				</clipPath>
				<g id="XMLID_108_" class="st5">
					<defs>
						<rect id="XMLID_109_" x="201.1" y="50.7" width="70.3" height="51.3"/>
					</defs>
					<clipPath id="XMLID_154_">
						<use xlink:href="#XMLID_109_"  style="overflow:visible;"/>
					</clipPath>
					<path id="XMLID_113_" class="st6" d="M202.1,95.4c0.3-0.8,0.7-1.5,1.3-2.1c1.2-1.2,2.8-1.3,4.4-2.1c0.5-0.2,1-0.5,1.5-0.9
						c0.4-0.4,0.8-0.9,1-1.4c0.2-0.6,0.2-1.2,0.1-1.8c-0.1-0.6-0.3-1.1-0.5-1.6c-0.4-1-0.8-1.9-0.7-2.9c0.1-0.5,0.3-0.9,0.6-1.3
						c0.3-0.3,0.8-0.6,1.2-0.8c1.9-0.9,3.9-1.5,6-1.6c1-0.1,1.9,0,2.9,0c0.5,0,1,0,1.5-0.4c0.5-0.3,0.7-0.8,0.8-1.3
						c0.2-1-0.2-2-0.5-2.9c-0.4-0.9-0.9-1.7-1.3-2.5c-0.5-0.8-0.9-1.6-1.2-2.4c-0.3-0.8-0.4-1.7-0.3-2.6c0.1-0.9,0.5-1.6,1.2-2.1
						c0.7-0.5,1.6-0.8,2.5-1.1c0.5-0.2,1.1-0.3,1.6-0.6c0.5-0.3,1.1-0.7,1.5-1.3c0.4-0.6,0.4-1.3,0.6-1.8c0.2-0.5,0.4-0.7,0.9-0.9
						c0.5-0.2,1-0.3,1.6-0.3c0.6-0.1,1.2-0.1,1.7-0.1c1.1,0,2.3,0.1,3.4,0.3c1.6,0.3,4,1.1,6,2.5c0.5,0.3,1.1,0.7,1.7,1
						c0.7,0.3,1.5,0.2,2.1-0.1c1.2-0.6,1.8-1.6,2.2-2.2c-0.5,0.8-1.2,1.8-2.3,2.2c-0.6,0.2-1.2,0.2-1.8,0c-0.6-0.2-1-0.5-1.4-0.8
						c-1.6-1.1-3.3-2-5.1-2.5c1,0.3,2,0.6,2.9,1.1c0.9,0.4,1.8,1,2.7,1.6c0.5,0.3,1,0.6,1.7,0.6c0.6,0,1.3-0.2,1.8-0.5
						c1-0.7,1.5-1.7,2.1-2.6c1.1-1.9,1.9-3.9,3.2-5.4c1.3-1.6,3.1-2.8,5.1-2.8c-1.8,0-3.6,1.1-4.8,2.5c-1.3,1.4-2.1,3.1-3,4.8
						c-0.5,0.9-0.9,1.7-1.6,2.5c-0.3,0.4-0.7,0.8-1.1,1.1c-0.4,0.3-1,0.5-1.6,0.4c-1.1-0.1-2-0.8-2.7-1.3c-0.8-0.5-1.6-1-2.5-1.3
						c-1.7-0.8-3.5-1.2-5.4-1.4c-0.9-0.1-1.9-0.1-2.8-0.1c-0.9,0.1-1.9,0.1-2.6,0.6c-0.4,0.2-0.6,0.6-0.7,1.1
						c-0.1,0.4-0.2,0.9-0.4,1.3c-0.4,0.9-1.3,1.3-2.2,1.6c-0.9,0.3-1.7,0.5-2.6,0.9c-0.8,0.4-1.6,1-2,1.8c0.2-0.5,0.6-0.9,1-1.3
						c0.4-0.3,0.9-0.6,1.4-0.8c1-0.4,2.1-0.6,3-1.2c0.5-0.3,0.9-0.6,1.1-1.1c0.2-0.5,0.3-1.1,0.5-1.6c0.2-0.5,0.7-1,1.2-1.2
						c0.5-0.2,1.1-0.3,1.7-0.3c2.3-0.2,4.7,0,6.9,0.7c1.1,0.3,2.2,0.8,3.2,1.4c0.5,0.3,1,0.6,1.5,0.9c0.5,0.3,1,0.7,1.6,0.9
						c0.6,0.2,1.3,0.1,1.8-0.2c0.6-0.3,1-0.7,1.4-1.2c0.7-1,1.3-2,1.8-3.1c1.1-2.1,2.2-4.2,4.1-5.5c0.9-0.6,2-1.1,3.1-1.2
						c1.1-0.1,2.2,0.2,3.2,0.5c1,0.4,2.1,0.6,3.1,0.7c1.1,0,2.1,0,3.1-0.1c1.2-0.1,2.6-0.2,3.7,0c-2.1-0.4-4.2,0.1-6.3,0.1
						c-1.1,0-2.2-0.2-3.2-0.5c-1-0.3-2.1-0.7-3.2-0.7c-2.3,0.1-4.3,1.6-5.6,3.4c-1.4,1.9-2.2,4.1-3.6,6c-0.3,0.5-0.7,0.9-1.2,1.3
						c-0.5,0.4-1.1,0.6-1.7,0.5c-0.6-0.1-1.1-0.4-1.6-0.7c-0.5-0.3-1-0.7-1.5-1c-2-1.2-4.3-2-6.6-2.3c-1.1-0.2-2.3-0.2-3.4-0.2
						c-0.6,0-1.1,0.1-1.7,0.2c-0.6,0.1-1.1,0.3-1.6,0.8c-0.4,0.5-0.5,1.1-0.7,1.6c-0.1,0.5-0.4,1-0.8,1.3c-0.8,0.7-1.8,0.9-2.8,1.3
						c-0.9,0.3-1.9,0.7-2.6,1.5c-0.7,0.8-1,1.9-1,2.9c0,1,0.3,2,0.8,3c0.4,0.9,1,1.8,1.4,2.6c0.5,0.8,0.9,1.7,1.1,2.6
						c0.2,0.9,0.1,1.9-0.4,2.2c-0.6,0.4-1.6,0.2-2.6,0.2c-1,0-2,0.1-3.1,0.2c-1.1,0.2-2.2,0.5-3.2,0.8c-0.5,0.2-1,0.4-1.6,0.7
						c-0.5,0.3-1,0.6-1.5,1.1c-0.4,0.5-0.7,1.2-0.7,1.9c0,0.7,0.1,1.3,0.3,1.8c0.4,1.1,0.8,2.1,0.9,3.1c0.1,1-0.4,1.8-1.3,2.3
						c-0.9,0.5-2,0.8-3,1.3c-0.9,0.4-2.2,1-2.9,2.1c-0.8,1.1-1.2,2.5-1.2,3.8c0,1.3,0.5,2.5,1.1,3.3c0.6,0.8,1.3,1.2,1.6,1.4
						c-1.1-0.7-2-2-2.2-3.2c0.1,0.5,0.4,0.9,0.7,1.4c-0.3-0.5-0.5-1-0.6-1.5c0.1,0.4,0.3,0.8,0.4,0.9c-0.3-0.6-0.5-1.4-0.5-1.9
						c0-0.1-0.1-0.6,0-1c0-0.4,0.1-0.9,0.2-1c-0.2,1-0.1,2.3,0.1,3c-0.1-0.3-0.1-0.7-0.1-1c0,0.2,0.1,0.5,0.1,0.8
						c0.1,0.3,0.1,0.5,0.2,0.6c-0.2-0.8-0.3-1.5-0.2-2.4c0.1-0.7,0.3-1.3,0.5-1.9c-0.3,0.7-0.5,1.8-0.5,2.3c0-0.4,0.1-0.7,0.2-1.1
						c0,0,0,0.1,0,0.1c0-0.2,0.1-0.4,0.1-0.5c0,0,0,0,0,0l0,0"/>
					<path id="XMLID_112_" class="st6" d="M201.2,96.4c0.1-0.9,0.6-2.1,1.1-2.7"/>
					<path id="XMLID_111_" class="st7" d="M222.6,63c0,0,0.2-0.1,0.5-0.2c0.3-0.1,0.8-0.3,1.3-0.6c0.5-0.3,1-0.9,1.1-1.8
						c0.1-0.4,0.2-0.9,0.6-1.3c0.3-0.4,0.9-0.7,1.4-0.8c1.1-0.3,2.3-0.3,3.6-0.3c1.3,0,2.7,0.2,4,0.6c1.4,0.4,2.8,0.9,4.1,1.7
						c0.7,0.4,1.3,0.9,2,1.2c0.7,0.4,1.5,0.6,2.2,0.2c0.7-0.3,1.3-0.9,1.7-1.6c0.5-0.7,0.9-1.4,1.2-2.1c0.8-1.4,1.5-2.9,2.5-4.2
						c1-1.3,2.4-2.4,3.9-2.9c0.8-0.2,1.6-0.4,2.4-0.3c0.8,0.1,1.5,0.3,2.3,0.6c2.9,1.2,5.7,0.4,8.2,0.4c1.3,0,2.5,0.3,3.5,0.8
						c1,0.5,1.9,1.3,2.2,2.2"/>
					<path id="XMLID_110_" class="st7" d="M239.7,61c0,0,0.2,0.1,0.6,0.4c0.4,0.3,1,0.8,2,0.9c0.5,0.1,1.1-0.1,1.5-0.4
						c0.5-0.3,0.9-0.7,1.3-1.2c0.7-1,1.4-2.2,2.1-3.6c0.7-1.3,1.4-2.7,2.6-3.9c1.1-1.1,2.6-2.1,4.3-2.3c1.7-0.2,3.4,0.7,5.1,1
						c1.7,0.3,3.4,0,5.1-0.1"/>
				</g>
			</g>
		</g>
		<g id="XMLID_96_" class="st1">
			<g id="XMLID_97_">
				<defs>
					<rect id="XMLID_98_" x="95.6" y="185" width="254.6" height="2.5"/>
				</defs>
				<clipPath id="XMLID_155_">
					<use xlink:href="#XMLID_98_"  style="overflow:visible;"/>
				</clipPath>
				<g id="XMLID_99_" class="st8">
					<defs>
						<rect id="XMLID_100_" x="95.6" y="185" width="254.6" height="2.5"/>
					</defs>
					<clipPath id="XMLID_156_">
						<use xlink:href="#XMLID_100_"  style="overflow:visible;"/>
					</clipPath>
					<path id="XMLID_104_" class="st9" d="M111.9,185.7c1.9,0,3.9,0,5.7,0c3.9,0,7.2,0.1,11,0.1c4.8,0,9.5,0.1,14.5,0.2
						c9.1,0,18.6,0,27.8,0.2c17.4,0.3,33.2,0.5,50.1,0.8c9.8,0.2,20.9,0.3,31.1,0.4c7.5,0,22.6,0.2,29.1,0c-8.6,0.1-17.7,0-26.1-0.1
						c18.5,0.1,37.9,0.1,56.1-0.3c-34.2,0.5-68.7,0.1-100.1-0.7c36.7,0.6,84.4,1.3,120.4,0c2.7-0.1,5.8-0.2,8.1-0.3
						c-35.8,1.6-82.2,0.9-119.8,0.3c-17.3-0.3-34.7-0.5-52.3-0.8c-4.8-0.1-9.6-0.1-14.4-0.2c-9.9-0.1-19.8-0.2-29.7-0.3
						c-8.8-0.1-24.4-0.1-27.7,0.2c2.8,0,5.9,0,8.6,0c-1,0-2.2,0-3.4,0.1c1.2,0,2.4,0,3.5,0c-0.9,0-1.8,0-2.1,0.1c1.4,0,3.3,0,4.4,0
						c0.6,0,3.6-0.1,4.4-0.1c-2.2,0-4.9,0.1-6.7,0.2c0.8,0,1.5,0,2.2,0c-0.9,0-2.7,0-3.1,0.1c1.9,0,3.5,0,5.5,0c1.6,0,3,0,4.5,0
						c-1.8,0-4.2,0-5.5,0.1c0.8,0,1.7,0,2.6,0c-0.1,0-0.2,0-0.2,0c0.4,0,0.9,0,1.3,0c0,0,0.1,0,0,0c0,0,0,0,0,0"/>
					<path id="XMLID_103_" class="st9" d="M109.3,185c1.9,0,4.5,0,6.2,0.1"/>
					<path id="XMLID_102_" class="st10" d="M221.7,186.4c0,0,24.8,0.4,53.3,0.4c14.2,0,29.4-0.1,42.8-0.4c6.7-0.1,13-0.3,18.5-0.5
						c5.5-0.2,10.3-0.5,13.9-0.7"/>
					<path id="XMLID_101_" class="st10" d="M266.2,187.1c0,0,37.5,0.3,67.1-0.9"/>
				</g>
			</g>
		</g>
		<g id="XMLID_87_" class="st1">
			<g id="XMLID_88_">
				<defs>
					<rect id="XMLID_89_" x="290.2" y="28.7" width="55.5" height="26.7"/>
				</defs>
				<clipPath id="XMLID_157_">
					<use xlink:href="#XMLID_89_"  style="overflow:visible;"/>
				</clipPath>
				<g id="XMLID_90_" class="st11">
					<defs>
						<rect id="XMLID_91_" x="290.2" y="28.7" width="55.5" height="26.7"/>
					</defs>
					<clipPath id="XMLID_158_">
						<use xlink:href="#XMLID_91_"  style="overflow:visible;"/>
					</clipPath>
					<path id="XMLID_95_" class="st12" d="M290.9,50.3c0-0.6,0-1.2,0-1.8c0-1.2,0.2-2.2,0.2-3.4c0-1.5,0.2-3,0.2-4.5
						c0-2.8,0-5.8,0.2-8.6c0.1-0.6,0.3-1.3,0.8-1.7c0.4-0.4,1-0.7,1.6-0.8c1.2-0.3,2.5-0.1,3.8-0.1c2.5,0.1,5,0.2,7.7,0.4
						c3,0.2,6.5,0.3,9.7,0.3c2.3,0,7,0.1,9,0c-2.7,0-5.5,0-8.1-0.1c5.8,0,11.8,0.1,17.5,0c-10.6,0-21.4-0.1-31.1-0.8
						c11.4,0.5,26.2,0.8,37.5,0.6c0.9,0,1.8,0,2.5-0.1c-11.1,0.3-25.6-0.1-37.3-0.6c-2.7-0.1-5.4-0.2-8.1-0.4
						c-1.4-0.1-2.8-0.1-4.2,0.5c-0.7,0.3-1.4,0.9-1.7,1.7c-0.3,0.7-0.3,1.5-0.3,2.2c-0.1,1.5-0.1,3-0.2,4.5
						c-0.1,3.1-0.2,6.2-0.3,9.2c-0.1,2.7-0.2,7.6,0.1,8.6c0-0.9,0-1.8,0.1-2.7c0,0.3,0,0.7,0,1.1c0-0.4,0-0.8,0-1.1
						c0,0.3,0,0.6,0,0.7c0-0.4,0-1,0-1.4c0-0.2-0.1-1.1,0-1.4c0,0.7,0.1,1.5,0.1,2.1c0-0.2,0-0.5,0-0.7c0,0.3,0,0.8,0,1
						c0-0.6,0-1.1,0-1.7c0-0.5,0-0.9,0-1.4c0,0.6,0,1.3,0,1.7c0-0.3,0-0.5,0-0.8c0,0,0,0.1,0,0.1c0-0.1,0-0.3,0-0.4c0,0,0,0,0,0
						L290.9,50.3"/>
					<path id="XMLID_94_" class="st12" d="M290.3,51.1c0-0.6,0-1.4,0.1-1.9"/>
					<path id="XMLID_93_" class="st13" d="M305.7,29.2c0,0,1.9,0.1,5,0.1c3,0.1,7.2,0.1,11.6,0.2c8.9,0.1,18.9,0.1,23.4-0.1"/>
					<path id="XMLID_92_" class="st13" d="M319.5,29.7c0,0,2.9,0.1,7,0.1c4.1,0,9.3,0,13.9-0.2"/>
				</g>
			</g>
		</g>
		<g id="XMLID_78_" class="st1">
			<g id="XMLID_79_">
				<defs>
					<rect id="XMLID_80_" x="295" y="55.8" width="74.1" height="5.1"/>
				</defs>
				<clipPath id="XMLID_159_">
					<use xlink:href="#XMLID_80_"  style="overflow:visible;"/>
				</clipPath>
				<g id="XMLID_81_" class="st14">
					<defs>
						<rect id="XMLID_82_" x="295" y="55.8" width="74.1" height="5.1"/>
					</defs>
					<clipPath id="XMLID_160_">
						<use xlink:href="#XMLID_82_"  style="overflow:visible;"/>
					</clipPath>
					<path id="XMLID_86_" class="st15" d="M300,59.5c0.6,0,1.2-0.1,1.7-0.1c1.2-0.1,2.2-0.1,3.4-0.2c1.5-0.2,2.9-0.1,4.4-0.3
						c1.4-0.1,2.8-0.3,4.2-0.4c1.4-0.1,2.9-0.2,4.3-0.4c1.3-0.2,2.6-0.6,3.8-1.1c0.6-0.2,1.2-0.4,1.8-0.5c0.6-0.1,1.2,0,1.8,0.2
						c1.2,0.3,2.2,1,3.4,1.5c0.6,0.2,1.2,0.5,1.9,0.5c0.7,0.1,1.4,0,2.1-0.3c0.8-0.3,1.4-0.7,2.1-1c0.7-0.3,1.4-0.5,2.1-0.6
						c1.5-0.1,3,0.4,4.4,0.9c1,0.4,2.6,1.2,4.1,1.9c1.6,0.7,3.3,1.2,4.3,1.2c-1.4-0.1-2.8-0.6-4-1.1c-1.3-0.6-2.4-1.2-3.6-1.8
						c1.3,0.6,2.6,1.2,3.9,1.8c1.3,0.6,2.8,1,4.4,1c0.4,0,0.8-0.1,1.1-0.2c0.4-0.1,0.7-0.3,1.1-0.4c0.7-0.3,1.3-0.8,1.8-1.2
						c0.6-0.4,1.2-0.7,1.8-0.8c0.6-0.1,1.3,0,1.9,0.3c-0.6-0.3-1.2-0.4-1.7-0.4c-0.6,0.1-1.1,0.3-1.7,0.7c-0.5,0.3-1,0.8-1.6,1.1
						c-0.3,0.2-0.6,0.3-0.9,0.4c-0.3,0.1-0.7,0.2-1,0.3c-1.4,0.2-2.8-0.1-4-0.5c-1.3-0.5-2.4-1.1-3.6-1.6c-1.2-0.6-2.3-1.2-3.5-1.6
						c-1.2-0.4-2.4-0.7-3.6-0.5c-1.2,0.1-2.3,0.8-3.4,1.3c-1.1,0.5-2.4,0.6-3.5,0.2c0.7,0.2,1.4,0.3,2,0.2c0.7-0.1,1.4-0.4,2-0.8
						c0.7-0.3,1.3-0.7,2.1-0.9c0.7-0.2,1.5-0.3,2.3-0.2c1.6,0.2,3,0.8,4.5,1.5c1.4,0.7,2.9,1.5,4.4,2.1c1.5,0.6,3.2,1,4.8,0.5
						c1.7-0.4,2.7-1.8,4.1-2.3c0.7-0.3,1.5-0.2,2.2,0.1c0.7,0.3,1.3,0.7,2,1.1c1.3,0.7,2.8,1,4.1,0.9c0.8,0,1.7-0.3,2.4-0.5
						c-1.2,0.5-2.7,0.7-4.1,0.4c-0.7-0.1-1.4-0.3-2.1-0.7c-0.7-0.3-1.3-0.8-2-1.1c-0.7-0.3-1.4-0.5-2.2-0.3c-0.7,0.2-1.4,0.6-2,1.1
						c-1.2,1-2.9,1.6-4.5,1.4c-1.6-0.2-3.1-0.9-4.5-1.6c-1.4-0.7-2.8-1.5-4.3-2c-1.5-0.6-3-0.9-4.6-0.6c-1.6,0.2-2.8,1.3-4.1,1.7
						c-1.2,0.4-2.5,0-3.6-0.6c-1.2-0.5-2.4-1.3-3.8-1.5c-0.7-0.1-1.5-0.1-2.2,0.2c-0.7,0.2-1.3,0.5-1.9,0.7
						c-1.2,0.5-2.5,0.7-3.8,0.8c-1.4,0.1-2.9,0.2-4.4,0.3c-3,0.2-6.1,0.4-9.1,0.6c-2.7,0.2-7.4,0.5-8.4,0.9c0.9,0,1.8-0.2,2.6-0.2
						c-0.3,0.1-0.7,0.1-1,0.2c0.4,0,0.7,0,1.1-0.1c-0.3,0-0.5,0.1-0.6,0.1c0.4,0,1-0.1,1.4-0.2c0.2,0,1.1-0.2,1.3-0.2
						c-0.7,0.1-1.5,0.2-2,0.3c0.2,0,0.4,0,0.7,0c-0.3,0-0.8,0.1-1,0.1c0.6,0,1.1-0.1,1.7-0.1c0.5,0,0.9-0.1,1.4-0.1
						c-0.5,0.1-1.3,0.1-1.7,0.2c0.3,0,0.5,0,0.8-0.1c0,0-0.1,0-0.1,0c0.1,0,0.3,0,0.4,0c0,0,0,0,0,0L300,59.5"/>
					<path id="XMLID_85_" class="st15" d="M299.2,58.9c0.6,0,1.4-0.1,1.9-0.1"/>
					<path id="XMLID_84_" class="st16" d="M332.8,57.8c0,0,0.4-0.2,1.2-0.6c0.4-0.2,0.8-0.5,1.4-0.7c0.3-0.1,0.6-0.2,0.9-0.3
						c0.2,0,0.3-0.1,0.5-0.1c0.2,0,0.4,0,0.6,0c1.5-0.1,3.3,0.5,5,1.3c1.8,0.8,3.6,1.9,5.7,2.5c1,0.3,2.2,0.5,3.2,0.3
						c0.3,0,0.5-0.1,0.8-0.2c0.3-0.1,0.5-0.2,0.8-0.3c0.5-0.3,0.9-0.6,1.4-0.9c0.5-0.3,0.9-0.6,1.4-0.8c0.5-0.2,1.1-0.3,1.7-0.2
						c1.1,0.2,2,0.9,2.9,1.4c1.8,1,3.8,1.1,5.3,0.7c1.6-0.4,2.8-1.2,3.4-2"/>
					<path id="XMLID_83_" class="st16" d="M345.6,59.2c0,0,0.2,0.1,0.5,0.2c0.3,0.1,0.8,0.3,1.3,0.5c0.6,0.2,1.3,0.4,2.1,0.6
						c0.4,0.1,0.9,0.1,1.4,0c0.5-0.1,1-0.1,1.5-0.3c1-0.3,1.8-1.1,2.8-1.7c0.5-0.3,1-0.5,1.5-0.6c0.5-0.1,1.1,0,1.7,0.2
						c1.1,0.4,2,1.2,3.2,1.6c1.1,0.4,2.3,0.4,3.4,0.3"/>
				</g>
			</g>
		</g>
		<g id="XMLID_69_" class="st1">
			<g id="XMLID_70_">
				<defs>
					<rect id="XMLID_71_" x="282.2" y="37.6" width="7.7" height="70.7"/>
				</defs>
				<clipPath id="XMLID_161_">
					<use xlink:href="#XMLID_71_"  style="overflow:visible;"/>
				</clipPath>
				<g id="XMLID_72_" class="st17">
					<defs>
						<rect id="XMLID_73_" x="282.2" y="37.6" width="7.7" height="70.7"/>
					</defs>
					<clipPath id="XMLID_162_">
						<use xlink:href="#XMLID_73_"  style="overflow:visible;"/>
					</clipPath>
					<path id="XMLID_77_" class="st18" d="M288.8,42.1c-0.1,0.5-0.2,1.1-0.2,1.6c-0.1,1.1-0.4,2-0.6,3c-0.2,1.3-0.5,2.6-0.7,4
						c-0.4,2.5-0.7,5.2-1.2,7.7c-0.9,4.8-1.7,9.2-2.6,13.8c-0.5,2.7-1.1,5.8-1.2,8.7c-0.1,2.1-0.2,6.4,0,8.1c-0.1-2.4,0-4.9,0.1-7.3
						c-0.1,5.2,0.1,10.6,0.1,15.7c0-4.8-0.1-9.6,0-14.3c0-4.7,1-9.3,2-13.6c-0.5,2.5-1,5.2-1.4,8.1c-0.4,2.8-0.4,5.8-0.5,8.7
						c-0.1,5.9,0.1,11.7-0.1,16.8c0,0.7-0.1,1.6-0.1,2.3c0.3-5,0.2-10.8,0.3-16.6c0-2.9,0.1-5.8,0.3-8.7c0.2-2.8,0.7-5.6,1.2-8.2
						c0.9-4.7,1.8-9.5,2.7-14.4c0.2-1.3,0.5-2.7,0.7-4c0.5-2.7,1-5.5,1.4-8.2c0.4-2.4,1.1-6.7,0.9-7.7c-0.1,0.8-0.2,1.6-0.4,2.4
						c0-0.3,0-0.6,0.1-1c-0.1,0.3-0.1,0.7-0.2,1c0-0.2,0-0.5,0-0.6c-0.1,0.4-0.1,0.9-0.1,1.2c0,0.2-0.1,1-0.1,1.2
						c0-0.6,0.1-1.4,0.1-1.9c0,0.2-0.1,0.4-0.1,0.6c0-0.3,0.1-0.7,0.1-0.9c-0.1,0.5-0.2,1-0.2,1.5c-0.1,0.4-0.1,0.8-0.2,1.2
						c0.1-0.5,0.1-1.2,0.2-1.5c-0.1,0.2-0.1,0.5-0.1,0.7c0,0,0,0,0-0.1C288.8,41.7,288.8,41.9,288.8,42.1
						C288.8,42,288.8,42,288.8,42.1L288.8,42.1"/>
					<path id="XMLID_76_" class="st18" d="M289.5,41.5c-0.1,0.5-0.2,1.2-0.3,1.7"/>
					<path id="XMLID_75_" class="st19" d="M284,72.4c0,0-0.1,0.4-0.2,1.2c-0.1,0.8-0.3,1.9-0.5,3.2c-0.4,2.7-0.5,6.4-0.5,10.4
						c0,4,0.1,8.2,0,12c-0.1,3.8-0.3,7-0.5,9.1"/>
					<path id="XMLID_74_" class="st19" d="M282.6,84.8c0,0-0.1,2.6,0,6.3c0,3.7,0.1,8.3,0,12.5"/>
				</g>
			</g>
		</g>
		<g id="XMLID_60_" class="st1">
			<g id="XMLID_61_">
				<defs>
					<rect id="XMLID_62_" x="317.6" y="76" width="27.5" height="62.3"/>
				</defs>
				<clipPath id="XMLID_163_">
					<use xlink:href="#XMLID_62_"  style="overflow:visible;"/>
				</clipPath>
				<g id="XMLID_63_" class="st20">
					<defs>
						<rect id="XMLID_64_" x="317.6" y="76" width="27.5" height="62.3"/>
					</defs>
					<clipPath id="XMLID_164_">
						<use xlink:href="#XMLID_64_"  style="overflow:visible;"/>
					</clipPath>
					<path id="XMLID_68_" class="st21" d="M318.7,90.1c0,1.3-0.1,2.5-0.1,3.7c0,2.6-0.2,4.7-0.2,7.2c0,3.1-0.2,6.2-0.3,9.5
						c-0.1,6-0.2,12.2-0.4,18.2c0,1.4-0.1,2.8-0.1,4.2c0,0.7-0.1,1.4,0.1,2.1c0.2,0.7,0.7,1.4,1.4,1.7c1.4,0.6,2.8,0.5,4.1,0.6
						c1.4,0.1,2.7,0.1,4.1,0.2c2.7,0.1,5.4,0.3,8.1,0.4c1.3,0.1,2.7,0.1,4.1,0.2c0.7,0,1.3,0.1,2.1,0c0.4-0.1,0.8-0.2,1.1-0.6
						c0.3-0.3,0.5-0.7,0.6-1.1c0.3-0.9,0.3-1.7,0.3-2.5c0-0.8,0.1-1.7,0.1-2.5c0.1-1.7,0.1-3.4,0.2-5.1c0.1-3.5,0.2-6.9,0.3-10.3
						c0.1-4.9,0.5-14.8,0.5-19c-0.1,5.6-0.4,11.6-0.6,17.1c0.2-6.1,0.3-12.3,0.5-18.4c0.1-3.1,0.2-6.2,0.2-9.2c0-1.5,0.1-3,0.1-4.6
						c0-0.8,0-1.5,0-2.3c0-0.4,0-0.8,0-1.2c0-0.4-0.2-0.8-0.4-1.2c0.6,0.7,0.5,1.5,0.5,2.2l0,2.1l-0.1,4.2c-0.1,2.8-0.2,5.6-0.2,8.4
						c-0.2,5.6-0.4,11.1-0.6,16.7c-0.2,5.5-0.5,10.9-0.7,16.3c-0.1,2.7-0.3,5.3-0.4,8c-0.1,0.6-0.2,1.3-0.5,1.9
						c-0.4,0.6-1,0.7-1.7,0.7c-1.3-0.1-2.6-0.2-3.9-0.3c0.8,0,1.5,0.1,2.3,0.1c0.4,0,0.8,0,1.1,0.1c0.4,0,0.8,0.1,1.1,0
						c0.7-0.1,1.2-0.9,1.3-1.6c0.2-0.8,0.1-1.6,0.2-2.4c0.1-3.2,0.3-6.5,0.4-9.8c0.2-6.7,0.5-13.6,0.8-20.4
						c0.2-6.9,0.5-13.7,0.6-20.4c0-0.8,0-1.7,0.1-2.5l0-1.2c0-0.4,0-0.8-0.1-1.2c-0.1-0.4-0.4-0.8-0.7-1c-0.4-0.2-0.8-0.3-1.2-0.4
						c-0.8-0.1-1.6-0.2-2.4-0.3c-3.2-0.3-6.2-0.4-9.2-0.5c-1.8,0-3.8,0-5.3,0c2.9-0.1,6,0,9.1,0.1c1.6,0.1,3.1,0.2,4.7,0.3
						c0.8,0.1,1.6,0.1,2.4,0.2c0.8,0.1,1.7,0.2,2.2,0.9c0.3,0.4,0.3,0.8,0.3,1.2c0,0.4,0,0.8,0,1.2c0,0.8,0,1.6-0.1,2.5
						c0,1.7-0.1,3.3-0.1,5c-0.1,3.4-0.2,6.7-0.3,10.1c-0.3,6.8-0.5,13.6-0.8,20.3c-0.1,3.3-0.3,6.6-0.4,9.9
						c-0.1,1.6-0.1,3.2-0.2,4.8c0,0.8-0.1,1.6-0.1,2.4c0,0.7-0.2,1.5-0.6,2c-0.4,0.5-1,0.6-1.7,0.5l-2.1-0.1l-4.2-0.2
						c-2.8-0.1-5.7-0.3-8.5-0.4c-1.4-0.1-2.8-0.1-4.3-0.2c-1.4-0.1-2.8-0.4-3.1-1.7c-0.2-0.6-0.1-1.3-0.1-2l0.1-2.2
						c0-1.4,0.1-2.9,0.1-4.3c0.1-3.1,0.2-6.3,0.3-9.5c0.2-6.5,0.3-13,0.5-19.4c0.1-5.7,0.4-16,0.1-18.2c0,1.8-0.1,3.9-0.1,5.6
						c0-0.7,0-1.5,0-2.2c0,0.8-0.1,1.6-0.1,2.3c0-0.6,0-1.2,0-1.4c0,0.9,0,2.2,0,2.9c0,0.4,0,2.3,0,2.9c0-1.4,0-3.2-0.1-4.4
						c0,0.5,0,1,0,1.5c0-0.6,0-1.8,0-2.1c0,1.2,0,2.3-0.1,3.6c0,1,0,1.9-0.1,2.9c0-1.2,0-2.8,0-3.6c0,0.5,0,1.1,0,1.7
						c0-0.1,0-0.1,0-0.1c0,0.2,0,0.6,0,0.8c0,0,0,0.1,0,0c0,0,0,0,0,0"/>
					<path id="XMLID_67_" class="st21" d="M319.4,88.4c0,1.2-0.1,2.9-0.1,4.1"/>
					<path id="XMLID_66_" class="st22" d="M342.8,136.1c0,0,0.1-0.2,0.1-0.7c0-0.5,0-1.2,0.1-2.1c0.1-1.8,0.2-4.4,0.3-7.6
						c0.2-6.4,0.5-15.1,0.8-24.4c0.1-4.7,0.3-9.5,0.4-14.2c0.1-2.4,0.1-4.7,0.2-7c0-0.6,0.1-1.2,0-1.7c-0.1-0.5-0.5-0.9-1-1.1
						c-0.5-0.2-1.1-0.3-1.6-0.3c-0.6-0.1-1.1-0.1-1.7-0.2c-8.8-0.8-16.4-0.6-21.2-0.1"/>
					<path id="XMLID_65_" class="st22" d="M344.1,107c0,0,0.2-6.1,0.4-14.7c0.1-2.1,0.1-4.4,0.2-6.8c0-1.2,0.1-2.4,0.1-3.6
						c0-0.6,0-1.2,0-1.9c0-0.6,0.1-1.3-0.1-1.9c-0.2-0.7-0.8-1.1-1.4-1.2c-0.6-0.2-1.3-0.2-1.9-0.3c-1.3-0.1-2.5-0.2-3.8-0.3
						c-2.5-0.2-5-0.2-7.5-0.2"/>
				</g>
			</g>
		</g>
		<g id="XMLID_51_" class="st1">
			<g id="XMLID_52_">
				<defs>
					<rect id="XMLID_53_" x="6.3" y="45.9" width="108.5" height="47.1"/>
				</defs>
				<clipPath id="XMLID_165_">
					<use xlink:href="#XMLID_53_"  style="overflow:visible;"/>
				</clipPath>
				<g id="XMLID_54_" class="st23">
					<defs>
						<rect id="XMLID_55_" x="6.3" y="45.9" width="108.5" height="47.1"/>
					</defs>
					<clipPath id="XMLID_166_">
						<use xlink:href="#XMLID_55_"  style="overflow:visible;"/>
					</clipPath>
					<path id="XMLID_59_" class="st24" d="M114.7,92.8c-0.1-0.3-0.2-0.6-0.4-0.9c-0.1-0.3-0.2-0.5-0.4-0.7c-0.3-0.4-0.6-0.8-1-1.1
						c-1.5-1.3-3-2.2-4.7-2.9c-2.2-0.8-4.4-1.8-6.7-2.7c-4.3-1.6-8.7-3.2-12.9-5c-4-1.6-7.9-3.2-11.7-4.7c-3.8-1.5-7.6-3.1-11.6-4.4
						c-4.6-1.6-10.1-2.7-14.8-4.5c-1.7-0.6-4.3-1.8-6.8-2.9c-2.5-1.2-4.9-2.4-6.3-3c3.9,1.8,7.9,3.9,11.7,5.5
						c-4.3-1.7-8.4-3.9-12.7-5.9c-4.2-2-8.4-4.1-12.5-6c3.8,1.9,7.7,3.7,11.5,5.5c3.8,1.9,7.6,3.8,11.4,5.5c7.5,3.7,15.8,4.8,23,7.9
						c-2.1-0.8-4.4-1.6-6.7-2.3c-2.3-0.7-4.7-1.3-7.2-2c-4.9-1.4-9.7-3.6-14.3-5.9c-9.4-4.6-18.7-9.2-26.9-12.9
						c-1.2-0.6-2.6-1.2-3.7-1.6c8.1,3.6,17.3,8.1,26.6,12.7c4.6,2.3,9.2,4.7,14,6.5c4.8,1.8,9.6,2.8,14.1,4.3c4.1,1.4,8,3,12,4.6
						c4,1.6,8.1,3.2,12.2,4.8c2.2,0.9,4.4,1.8,6.7,2.7c2.3,0.9,4.6,1.8,6.9,2.7c2.3,0.9,4.6,1.7,6.7,2.8c0.9,0.5,2,1.2,2.8,2.2
						c0.2,0.2,0.4,0.5,0.5,0.8l0.1,0.2c0,0,0,0.1,0,0.1c-0.1,0-0.1,0-0.4,0c-0.3,0-0.7,0-1,0c-2.6-0.1-4.8-0.9-5.7-1.1
						c1.3,0.6,2.8,1,4.1,1.2c-0.5-0.1-1.1-0.1-1.7-0.3c0.6,0.1,1.2,0.3,1.7,0.4c-0.4-0.1-0.9-0.1-1.1-0.1c0.7,0.2,1.6,0.3,2.2,0.3
						c0.3,0,1.8,0,2.1,0c-0.4,0-1,0.1-1.6,0.1c-0.6,0-1.1-0.1-1.6-0.1c0.4,0.1,0.7,0.1,1.1,0.2c-0.5,0-1.3-0.1-1.6-0.1
						c0.9,0.2,1.8,0.2,2.7,0.3c0.4,0,0.8,0,1.3,0l0.2,0l0.1,0c0,0,0.1,0,0,0l-0.1-0.3c-0.1-0.2-0.2-0.4-0.3-0.6
						c0.1,0.2,0.2,0.5,0.3,0.8l0,0.1c0,0,0,0.1,0,0.1l-0.2,0l-0.4,0c-0.5,0-1,0-1.3,0c0.4,0,0.8,0,1.4,0c-0.1,0-0.1,0-0.1,0
						c0.2,0,0.6,0,0.9,0c0,0,0.1,0,0.1,0c0,0,0,0,0,0"/>
					<path id="XMLID_58_" class="st24" d="M113.3,92.4c0.1,0,0.2,0,0.3,0c0.1,0,0.1,0,0.2,0l0.2,0c0,0,0-0.1-0.1-0.1
						c0-0.1-0.1-0.1-0.2-0.4c-0.1-0.2-0.2-0.4-0.4-0.6"/>
					<path id="XMLID_57_" class="st25" d="M64.9,71c0,0-0.7-0.2-2.1-0.6c-1.3-0.4-3.2-0.9-5.6-1.5c-2.3-0.6-5.1-1.5-8-2.7
						c-2.9-1.2-6-2.7-9.2-4.2C27.4,55.7,13,48.7,6.3,45.9"/>
					<path id="XMLID_56_" class="st25" d="M44.2,63.6c0,0-4.2-2-10-4.9c-5.9-2.8-13.4-6.4-20.1-9.4"/>
				</g>
			</g>
		</g>
		<g id="XMLID_42_" class="st1">
			<g id="XMLID_43_">
				<defs>
					<rect id="XMLID_44_" x="109.6" y="55.4" width="180.7" height="56.3"/>
				</defs>
				<clipPath id="XMLID_167_">
					<use xlink:href="#XMLID_44_"  style="overflow:visible;"/>
				</clipPath>
				<g id="XMLID_45_" class="st26">
					<defs>
						<rect id="XMLID_46_" x="109.6" y="55.4" width="180.7" height="56.3"/>
					</defs>
					<clipPath id="XMLID_168_">
						<use xlink:href="#XMLID_46_"  style="overflow:visible;"/>
					</clipPath>
					<path id="XMLID_50_" class="st27" d="M124.7,103.8c1.9,0.2,3.8,0.3,5.6,0.4c1.9,0.1,3.8,0,5.5-0.7c0.4-0.2,0.8-0.4,1.2-0.7
						c0.2-0.2,0.4-0.3,0.5-0.5l0.2-0.2c0,0,0.1-0.1,0.1-0.1l0-0.1c0,0,0-0.1,0,0l0.1,0.1c0.1,0.1,0.1,0.2,0.3,0.4
						c0.3,0.4,0.7,0.7,1,1c1.9,1.6,4.3,2.4,6.7,2.4c1.2,0,2.5-0.1,3.6-0.6c1.2-0.4,2.2-1.2,3.3-1.5c1-0.3,2,0,3,0.5
						c1,0.5,1.8,1.1,2.8,1.7c0.5,0.3,1,0.6,1.5,0.8c0.5,0.2,1.1,0.3,1.7,0.2l0.4-0.1c0.1-0.1,0.3-0.1,0.4-0.2
						c0.3-0.1,0.5-0.4,0.7-0.6c0.4-0.5,0.6-1,0.9-1.4c0.5-0.9,1.6-1.4,2.7-1.4c1.1,0,2.2,0.3,3.2,0.5c0.5,0.1,1.1,0.3,1.7,0.3
						c0.6,0,1.1,0,1.7-0.2c0.6-0.1,1.1-0.3,1.6-0.7c0.2-0.2,0.5-0.4,0.6-0.6c0.1-0.2,0.1-0.2,0.1-0.3c0-0.1,0-0.2,0-0.3
						c0-0.1,0-0.2-0.1-0.3l0.2,0.3c0.1,0.1,0.2,0.3,0.4,0.4c0.2,0.2,0.4,0.4,0.7,0.5c0.5,0.3,1,0.5,1.5,0.7c1,0.3,2.1,0.4,3.2,0.5
						c2.1,0.1,4.2-0.1,6.3-0.1c2,0,4.1,0.2,5.9,1.1c0.9,0.5,1.6,1.2,2.5,1.8c0.4,0.3,0.9,0.6,1.4,0.8c0.5,0.2,1.1,0.2,1.7,0.1
						c0.6-0.2,1-0.5,1.4-0.9c0.4-0.4,0.7-0.8,1-1.2c0.3-0.4,0.6-0.7,1-1l0.6-0.3c0.2,0,0.4-0.1,0.7-0.1c0.9,0,1.8,0.5,2.6,1
						c0.8,0.5,1.6,1.2,2.5,1.8c0.8,0.6,1.7,1.2,2.8,1.5l0.8,0.2c0.3,0,0.6,0,0.9,0c0.3-0.1,0.6-0.1,0.8-0.2c0.3-0.1,0.5-0.2,0.8-0.4
						c0.9-0.6,1.6-1.4,2.4-1.8c0.8-0.4,1.8-0.4,2.7-0.1c1.1,0.3,2.1,1,3.2,1.6c1.1,0.6,2.2,1.3,3.5,1.7c0.7,0.1,1.4,0.3,2.2,0.1
						c0.7-0.2,1.4-0.6,1.9-1.2c0.5-0.6,0.8-1.1,1.1-1.6c0.4-0.5,0.8-0.8,1.3-1c1-0.4,2.2,0,3.3,0.6c1.1,0.6,2.1,1.4,3.2,2.1
						c1.1,0.8,2.1,1.5,3.3,2.1c1.2,0.6,2.6,1.1,4.1,0.8c0.5-0.1,1.1-0.3,1.6-0.7c0.5-0.3,0.9-0.8,1.3-1.2c0.8-0.9,1.3-2,2.3-2.5
						c0.2-0.1,0.5-0.2,0.7-0.3c0.3-0.1,0.5-0.1,0.8-0.1c0.6,0,1.2,0.1,1.8,0.3c1.2,0.4,2.4,1.1,3.6,1.7c1.2,0.7,2.4,1.3,3.8,1.7
						c0.3,0.1,0.7,0.2,1,0.2l0.5,0.1c0.2,0,0.4,0,0.5,0c0.2,0,0.4,0,0.5,0l0.5-0.1c0.3-0.1,0.7-0.2,1-0.4c1.2-0.7,1.9-1.6,2.7-2.1
						c0.4-0.2,0.8-0.4,1.2-0.6c0.4-0.1,0.8-0.3,1.1-0.3c-1,0.2-1.9,0.5-2.7,1.1c-0.8,0.6-1.6,1.5-2.7,2c-1.1,0.5-2.4,0.5-3.5,0.2
						c-1.1-0.3-2.1-0.8-3.1-1.3c-1.9-1-3.8-2.3-5.7-2.5c-1-0.1-1.9,0.2-2.6,0.8c-0.7,0.6-1.3,1.5-2,2.4c0.8-0.9,1.3-1.9,2.2-2.5
						c0.8-0.6,1.9-0.8,2.9-0.6c2.1,0.4,4,1.9,6.2,2.9c1.1,0.5,2.2,1,3.5,1c1.3,0.1,2.6-0.5,3.5-1.2c0.5-0.4,0.9-0.8,1.3-1.1
						c0.4-0.4,0.9-0.6,1.4-0.8c1-0.4,2.1-0.5,3.3-0.4c2.3,0.1,4.5,0.8,6.8,1.2c2.3,0.4,4.8,0.7,7.1-0.5c0.2-0.1,0.5-0.1,0.4-0.4
						l0-0.6l0-0.9l0.1-1.7c0-1.1,0.1-2.3,0.1-3.4c0.1-2.3,0.2-4.5,0.3-6.8l-0.5,12.7l0,0.4l0,0.3c0,0.1,0,0.2-0.1,0.3l-0.9,0.4
						c-0.2,0.1-0.5,0.2-0.8,0.3c-0.3,0.1-0.5,0.2-0.8,0.2c-1.1,0.2-2.2,0.1-3.3,0c-2.1-0.3-4.2-0.9-6.2-1.2c-2-0.3-4.2-0.5-6,0.4
						c-0.9,0.4-1.6,1.2-2.5,1.8c-0.9,0.7-2,1.1-3.1,1.1c-2.3-0.1-4.1-1.3-5.9-2.3c-0.9-0.5-1.8-1-2.8-1.4c-0.9-0.3-1.9-0.6-2.9-0.3
						c-0.4,0.2-0.9,0.3-1.3,0.6c-0.4,0.3-0.7,0.7-1,1.1c-0.6,0.8-1.2,1.7-2.1,2.4c-0.5,0.3-1,0.5-1.5,0.7c-0.5,0.1-1.1,0.1-1.6,0
						c-1.1-0.2-2-0.6-2.9-1.2c-1.8-1.1-3.4-2.4-5.1-3.5c-0.9-0.5-1.8-1-2.7-1.2c-0.5-0.1-1-0.1-1.4,0c-0.5,0.1-0.9,0.4-1.3,0.7
						c-0.7,0.6-1.1,1.6-1.9,2.3c-0.2,0.2-0.4,0.3-0.6,0.5c-0.2,0.1-0.4,0.3-0.7,0.3c-0.3,0.1-0.5,0.1-0.8,0.1c-0.3,0-0.5,0-0.8-0.1
						c-1-0.2-1.9-0.7-2.8-1.1c-0.9-0.5-1.7-1-2.6-1.5c-0.9-0.5-1.8-0.9-2.8-1c-1-0.1-2,0.1-2.8,0.8c-0.8,0.6-1.4,1.4-2.3,1.7
						c-0.9,0.3-1.9,0.2-2.7-0.2c0.3,0.1,0.5,0.2,0.8,0.3c0.3,0.1,0.5,0.1,0.8,0.1c0.1,0,0.3,0,0.4,0l0.4-0.1
						c0.3-0.1,0.5-0.1,0.8-0.3c1-0.5,1.7-1.6,2.8-2.1c1.1-0.5,2.4-0.3,3.5,0.2c1.1,0.4,2.1,1.1,3.2,1.7c1,0.6,2.1,1.2,3.3,1.5
						c0.6,0.1,1.2,0.1,1.8-0.1c0.3-0.2,0.6-0.3,0.8-0.5c0.2-0.2,0.4-0.4,0.6-0.7c0.4-0.5,0.7-1,1.1-1.5c0.4-0.5,0.9-0.8,1.5-1
						c1.2-0.4,2.5,0.1,3.6,0.6c2.2,1.2,4.1,2.9,6.4,4.2c1.1,0.6,2.4,1.1,3.7,0.9c0.6-0.1,1.3-0.3,1.8-0.7c0.5-0.4,0.9-0.9,1.3-1.4
						c0.8-1,1.5-2.2,2.8-2.5c1.2-0.5,2.5-0.2,3.7,0.3c2.4,1,4.4,2.7,7,3.4c1.3,0.3,2.7,0.2,3.8-0.6c1.1-0.7,1.9-1.8,3.1-2.2
						c1.2-0.5,2.4-0.6,3.7-0.6c1.3,0.1,2.5,0.3,3.8,0.6c1.3,0.3,2.5,0.6,3.8,0.8c1.3,0.2,2.6,0.3,3.8,0.2c0.3,0,0.6-0.1,1-0.2
						c0.3-0.1,0.6-0.2,0.9-0.3l0.5-0.2l0.3-0.1c0-0.1,0-0.2,0-0.3l0-1c0.1-1.3,0.1-2.5,0.2-3.8c0.4-10,0.8-19.6,1.1-28.5
						c0.1-2.7,0.2-5.7,0.2-8c-0.3,8.8-0.6,18.3-1,28.2c-0.1,2.5-0.2,4.9-0.3,7.4c-0.1,1.3-0.1,2.5-0.2,3.8l-0.1,1.9l0,0.1
						c0,0-0.1,0-0.1,0.1l-0.2,0.1l-0.4,0.2c-0.3,0.2-0.6,0.2-0.9,0.3c-5.1,1.2-10.1-2.4-15.1-1.1c-0.3,0.1-0.6,0.2-0.9,0.3
						c-0.3,0.2-0.6,0.3-0.8,0.4c-0.5,0.4-1,0.8-1.5,1.2c-0.5,0.4-1,0.8-1.6,1c-0.3,0.1-0.6,0.2-0.9,0.2c-0.3,0-0.7,0.1-1,0
						c-1.3-0.1-2.5-0.6-3.6-1.2c-1.1-0.6-2.2-1.3-3.4-1.8c-1.1-0.6-2.4-1.1-3.6-1c-0.3,0.1-0.6,0.1-0.9,0.2
						c-0.3,0.1-0.6,0.2-0.9,0.4c-0.6,0.3-1,0.8-1.4,1.3c-0.8,1-1.5,2.1-2.6,2.7c-1.1,0.6-2.5,0.4-3.6,0c-2.3-0.9-4.2-2.7-6.3-4
						c-1-0.7-2.2-1.3-3.4-1.5c-1.3-0.2-2.6,0.5-3.3,1.5c-0.4,0.5-0.7,1-1.1,1.5c-0.4,0.4-0.9,0.7-1.4,0.9c-1.1,0.3-2.3-0.1-3.3-0.7
						c-1-0.5-2-1.2-3.1-1.7c-1-0.6-2.2-1.1-3.4-1.2c-1.1-0.1-2.2,0.4-3,1.1c-0.8,0.7-1.5,1.4-2.4,1.6c-0.9,0.2-1.9-0.1-2.7-0.5
						c-0.9-0.5-1.7-1.1-2.5-1.7c-0.8-0.6-1.7-1.2-2.6-1.7c-0.2-0.1-0.5-0.2-0.8-0.3c-0.3-0.1-0.5-0.2-0.8-0.2l-0.4,0l-0.4,0.1
						c-0.1,0-0.3,0-0.4,0.1L203,104c-0.5,0.2-1,0.6-1.3,1c-0.4,0.4-0.7,0.8-1,1.2c-0.3,0.4-0.7,0.7-1,0.8c-0.4,0.2-0.8,0.2-1.3,0.1
						c-0.9-0.2-1.7-0.9-2.5-1.5c-0.8-0.6-1.7-1.3-2.8-1.6c-2.1-0.7-4.2-0.7-6.3-0.7c-2.1,0.1-4.1,0.2-6.1,0c-1-0.1-2-0.3-2.8-0.7
						c-0.2-0.1-0.4-0.2-0.6-0.4c-0.1-0.1-0.2-0.1-0.3-0.2l-0.1-0.1c-0.1-0.1-0.2-0.2-0.3-0.3c-0.3-0.4-0.7-0.8-1-1.2l-0.2-0.3
						l-0.1-0.1l0,0l-0.1-0.1l0,0l-0.1-0.1l-0.2-0.3c0.1,0.6,0.3,1.4,0.3,1.7l0.1,0.6c0,0.1,0,0.2,0,0.3l0,0.1l-0.1,0.1
						c0,0,0,0.1-0.1,0.1c-0.1,0.1-0.1,0.1-0.1,0.2c-0.2,0.2-0.6,0.4-0.9,0.6c-1,0.4-2.1,0.5-3.2,0.2c-1.1-0.3-2.3-0.6-3.6-0.7
						c-0.6,0-1.3,0-2,0.2c-0.6,0.2-1.2,0.7-1.6,1.3c-0.4,0.6-0.6,1.1-0.9,1.5c-0.2,0.2-0.3,0.4-0.5,0.5c-0.2,0.1-0.4,0.2-0.6,0.2
						c-0.9,0.1-2-0.6-3-1.2c-1-0.7-2-1.4-3.3-1.9c-0.6-0.3-1.3-0.3-2-0.3c-0.7,0.1-1.4,0.3-1.9,0.6c-1.1,0.6-2.1,1.1-3.3,1.4
						c-2.3,0.5-4.7,0.1-6.8-0.9c-1-0.5-2-1.3-2.7-2.2l-0.5-0.7l-0.2-0.3l-0.1-0.2l-0.1-0.1c0,0,0,0-0.1,0.1l-0.5,0.7
						c-0.1,0.1-0.2,0.3-0.3,0.4l-0.2,0.2c-0.4,0.4-0.8,0.7-1.3,0.9c-1.8,0.8-4.5,0.8-7.1,0.5c-2.7-0.2-5.5-0.4-8.2-0.6
						c-1.3-0.1-2.6-0.2-3.8-0.3c-1.2-0.1-2.4-0.1-3.5,0.1c-1,0.2-2,0.5-2.6,1.1c-0.6,0.5-0.8,1.2-0.8,1.7c0.1-0.7,0.6-1.4,1.2-1.8
						c0.6-0.4,1.4-0.6,2.1-0.7c1.5-0.3,2.9-0.1,4.2,0c-1-0.1-2.2-0.1-3.4,0c1.1-0.1,2.4,0,3.5,0.1c-0.9-0.1-1.8-0.1-2.1-0.1
						c1.4,0.1,3.3,0.2,4.4,0.3c0.6,0,3.5,0.2,4.4,0.3c-2.1-0.1-4.9-0.3-6.6-0.4c0.7,0.1,1.5,0.1,2.2,0.2c-0.9,0-2.6-0.2-3.1-0.2
						c1.8,0.1,3.5,0.3,5.4,0.4c1.5,0.1,2.9,0.2,4.4,0.4c-1.8-0.1-4.1-0.3-5.4-0.3c0.8,0.1,1.7,0.1,2.5,0.2c-0.1,0-0.2,0-0.2,0
						c0.4,0,0.9,0.1,1.3,0.1c0,0,0.1,0,0,0c0,0,0,0,0,0"/>
					<path id="XMLID_49_" class="st27" d="M122.1,103c1.8,0.2,4.4,0.4,6.1,0.5"/>
					<path id="XMLID_48_" class="st28" d="M221.3,106c0,0,0.1,0,0.3,0.1c0.2,0.1,0.4,0.2,0.8,0.4c0.7,0.3,1.6,0.9,2.8,1.5
						c0.6,0.3,1.3,0.7,2,0.9c0.8,0.2,1.7,0.4,2.5,0c0.9-0.3,1.4-1.3,2-2.2c0.6-0.9,1.7-1.7,3-1.6c1.3,0.1,2.4,0.7,3.5,1.4
						c1.1,0.7,2.2,1.5,3.4,2.3c1.2,0.8,2.4,1.6,3.8,2c0.7,0.2,1.5,0.3,2.2,0.1c0.7-0.2,1.4-0.6,1.9-1.1c0.5-0.6,1-1.2,1.5-1.8
						c0.5-0.6,1.1-1.2,1.9-1.5c0.7-0.4,1.6-0.4,2.4-0.3c0.8,0.1,1.6,0.5,2.4,0.8c1.5,0.7,3,1.7,4.5,2.4c0.8,0.3,1.6,0.7,2.5,0.7
						c0.4,0.1,0.9,0,1.3,0c0.4-0.1,0.8-0.2,1.2-0.4c0.8-0.4,1.4-1,2.1-1.6c0.3-0.3,0.7-0.6,1.1-0.7l0.6-0.3c0.2-0.1,0.4-0.1,0.6-0.2
						c1.7-0.5,3.6-0.3,5.3,0c1.8,0.3,3.5,0.8,5.3,1.1c1.8,0.3,3.6,0.4,5.3-0.3l0.6-0.3c0.1-0.1,0.2-0.1,0.2-0.1l0-0.3l0.1-1.3
						c0-0.9,0.1-1.8,0.1-2.7c0.1-1.8,0.2-3.5,0.2-5.3c0.1-3.5,0.3-6.9,0.4-10.2c0.5-13.3,0.9-24.8,1.1-32.1"/>
					<path id="XMLID_47_" class="st28" d="M259.1,107.9c0,0,0.5,0.3,1.4,0.8c0.9,0.5,2.3,1.4,4.4,1.6c1,0.1,2.2-0.2,3.2-0.9
						c1-0.7,1.8-1.7,3-2.1c1.2-0.5,2.6-0.6,4.1-0.5c1.5,0.1,3,0.5,4.6,0.8c1.6,0.3,3.2,0.7,5,0.7c0.9,0,1.8-0.1,2.6-0.4
						c0.2,0,0.4-0.2,0.6-0.3l0.3-0.2c0.1-0.1,0.3-0.1,0.4-0.2c0-0.5,0-1,0.1-1.4c0.1-3.6,0.3-7.3,0.4-11.1
						c0.3-7.6,0.6-15.4,0.8-22.7"/>
				</g>
			</g>
		</g>
		<g id="XMLID_33_" class="st1">
			<g id="XMLID_34_">
				<defs>
					<rect id="XMLID_35_" x="191.3" y="135.9" width="46.2" height="55.7"/>
				</defs>
				<clipPath id="XMLID_169_">
					<use xlink:href="#XMLID_35_"  style="overflow:visible;"/>
				</clipPath>
				<g id="XMLID_36_" class="st29">
					<defs>
						<rect id="XMLID_37_" x="191.3" y="135.9" width="46.2" height="55.7"/>
					</defs>
					<clipPath id="XMLID_170_">
						<use xlink:href="#XMLID_37_"  style="overflow:visible;"/>
					</clipPath>
					<path id="XMLID_41_" class="st30" d="M192.1,177.9c0-1.1,0-2.3,0-3.3c0-2.3,0.1-4.2,0-6.4c-0.1-2.8,0-5.5,0-8.5
						c-0.1-5.3-0.2-10.8-0.1-16.2c0-1.3,0-2.5,0-3.8c0-0.6,0.1-1.2,0.3-1.7c0.2-0.5,0.6-0.9,1.2-1.1c1.1-0.4,2.3-0.2,3.5-0.2
						c1.2,0,2.4,0.1,3.6,0.1c4.8,0.1,9.6,0.2,14.5,0.4c5.7,0.2,12.2,0.4,18.2,0.5c0.5,0,1.2,0,1.7,0.1c0.6,0.1,1,0.3,1.1,0.8
						c0.2,0.5,0.1,1.4,0.2,2.2c0,0.8,0.1,1.6,0.1,2.4c0.1,3.2,0.3,6.2,0.4,8.2c-0.1-2.5-0.2-5.1-0.3-7.6c-0.1-1.3-0.1-2.6-0.2-3.8
						c0-0.6,0-1.2-0.2-1.6c-0.2-0.4-0.7-0.6-1.2-0.7c0.6,0.1,1.1,0.3,1.3,0.8c0.2,0.5,0.2,1.2,0.2,1.9c0.1,1.4,0.1,2.7,0.2,4.1
						c0.1,2.7,0.2,5.5,0.3,8.2c0.1,5.5,0.1,11,0.1,16.3c0.1-10,0-20-0.5-29.8c0-0.6-0.2-1.1-0.7-1.4c-0.4-0.3-1-0.4-1.6-0.4
						c-1.2,0-2.4-0.1-3.6-0.1c-2.4-0.1-4.8-0.2-7.2-0.2c-4.7-0.2-9.4-0.4-14-0.5c5.4,0.1,11.1,0.3,17.1,0.5c1.5,0,3,0.1,4.5,0.1
						c0.8,0,1.5,0,2.3,0.1c0.8,0,1.5,0,2.2,0.2c0.4,0.1,0.7,0.3,0.9,0.5c0.2,0.3,0.3,0.6,0.4,1c0.1,0.7,0.1,1.5,0.1,2.3l0.2,4.6
						c0.4,12.3,0.3,24.5-0.1,35c0,1.6-0.1,3.3-0.1,4.7c0.4-10.5,0.7-22.4,0.4-34.6c-0.1-3-0.2-6.1-0.3-9.1l-0.1-2.3
						c0-0.4,0-0.8-0.1-1.1c-0.1-0.4-0.3-0.7-0.7-0.9c-0.7-0.4-1.4-0.4-2.2-0.5c-0.7,0-1.5,0-2.2-0.1c-5.9-0.2-11.8-0.3-17.2-0.5
						c-5-0.1-10.1-0.3-15.2-0.4l-3.8-0.1c-0.7,0-1.3,0-2,0.3c-0.7,0.2-1.4,0.8-1.6,1.5c-0.3,0.7-0.3,1.4-0.3,2.1l0,1.9
						c0,1.3,0,2.6,0,3.9c0,2.8,0,5.6,0,8.4c0,5.8,0,11.6,0,17.3c0,5.1,0.1,14.2,0.4,16.2c0-1.6,0-3.4,0-5c0,0.6,0.1,1.3,0.1,2
						c0-0.7,0-1.4,0-2c0,0.5,0,1,0.1,1.2c0-0.8,0-2-0.1-2.6c0-0.4-0.1-2.1-0.1-2.6c0.1,1.3,0.1,2.9,0.2,3.9c0-0.4,0-0.9,0-1.3
						c0,0.5,0,1.6,0.1,1.8c0-1.1,0-2.1,0-3.2c0-0.9,0-1.7,0-2.6c0,1,0.1,2.5,0.1,3.2c0-0.5,0-1,0-1.5c0,0.1,0,0.1,0,0.1
						c0-0.2,0-0.5,0-0.7c0,0,0-0.1,0,0c0,0,0,0,0,0"/>
					<path id="XMLID_40_" class="st30" d="M191.5,179.5c0-1.1,0-2.6,0-3.6"/>
					<path id="XMLID_39_" class="st31" d="M215.5,136.5c0,0,3.6,0.1,9.3,0.2c2.9,0.1,6.2,0.1,9.9,0.2c0.5,0.1,0.9,0.1,1.4,0.4
						c0.4,0.3,0.7,0.7,0.8,1.2c0.1,1,0.1,1.9,0.2,2.9c0.1,2,0.2,4,0.2,6.1c0.3,8.3,0.3,17.2,0.1,25c-0.2,7.8-0.5,14.7-0.7,19"/>
					<path id="XMLID_38_" class="st31" d="M236.8,142.6c0,0,0.1,1.4,0.1,3.7c0.1,2.3,0.2,5.6,0.2,9.4c0.1,7.6,0,17.4-0.2,26.1"/>
				</g>
			</g>
		</g>
		<g id="XMLID_24_" class="st1">
			<g id="XMLID_25_">
				<defs>
					<rect id="XMLID_26_" x="182" y="124.8" width="67.9" height="14.2"/>
				</defs>
				<clipPath id="XMLID_171_">
					<use xlink:href="#XMLID_26_"  style="overflow:visible;"/>
				</clipPath>
				<g id="XMLID_27_" class="st32">
					<defs>
						<rect id="XMLID_28_" x="182" y="124.8" width="67.9" height="14.2"/>
					</defs>
					<clipPath id="XMLID_172_">
						<use xlink:href="#XMLID_28_"  style="overflow:visible;"/>
					</clipPath>
					<path id="XMLID_32_" class="st33" d="M183.6,127.8c0.2-0.7,0.6-1.2,1.3-1.4c0.7-0.2,1.4-0.2,2.1-0.2c0.7,0,1.4,0,2.2-0.1
						c1.9-0.2,3.8-0.1,5.7-0.2c3.6-0.2,7.3-0.4,11-0.3c6.9,0.1,13.2,0.2,19.8,0.7c3.9,0.3,8.3,0.6,12.3,0.9c1.5,0.1,3.7,0.3,5.9,0.5
						c1.1,0.1,2.1,0.2,2.6,0.7c0.6,0.5,0.8,1.3,1,1.9c-0.2-0.8-0.5-1.5-1-2c-0.5-0.4-1.3-0.6-2.2-0.6c-1.7-0.2-3.4-0.4-5.1-0.5
						c1.8,0.1,3.7,0.3,5.5,0.5c0.9,0.1,1.7,0.3,2.2,1c0.5,0.6,0.7,1.6,0.9,2.5c0.5,1.8,0.9,3.6,1.2,5.4l0.2,1.4l0.1,0.6l0,0.2
						c0,0.1,0,0.1,0,0.1l-1-0.1l-1.3-0.1l2.3,0.2l0.1,0c0,0,0-0.1,0-0.1l-0.1-0.4l-0.2-1.2c-0.3-1.7-0.6-3.3-1-4.9
						c-0.5-1.6-0.6-3.5-2.1-4.1c-0.7-0.3-1.5-0.3-2.4-0.4l-2.5-0.3c-6.6-0.7-13.1-1.2-19.3-1.7c3.6,0.2,7.5,0.5,11.6,0.8
						c2,0.2,4.1,0.4,6.1,0.6c1,0.1,2.1,0.2,3.1,0.3c1,0.1,2.1,0.2,3.1,0.4c0.5,0.1,0.9,0.4,1.3,0.7c0.3,0.4,0.6,0.8,0.7,1.3
						c0.3,1,0.6,2,0.8,3c0.2,1,0.4,2,0.6,3c0.1,0.5,0.2,1,0.3,1.5c0.1,0.5,0.1,1,0.2,1.4l0,0.3c0,0,0,0.1,0,0.1l-0.1,0l-0.6-0.1
						c-0.5-0.1-1-0.1-1.5-0.2c-1-0.1-1.9-0.2-2.9-0.4c-1.9-0.3-3.7-0.5-5.5-0.8c-1-0.2-2.2-0.4-3.2-0.5c3.5,0.6,7.3,1.2,11.2,1.7
						l1.5,0.2l0.7,0.1l0.3,0l0.2,0l0-0.2l-0.2-1.4l-0.2-1.5c-0.3-2-0.8-4-1.3-6c-0.1-0.5-0.3-1-0.6-1.4c-0.3-0.4-0.7-0.7-1.2-0.9
						c-1-0.4-2-0.4-3-0.5c-2-0.2-4.1-0.4-6.1-0.6c-4-0.4-8-0.7-11.7-0.9c-6.8-0.4-13.7-0.7-20.7-0.6c-1.9,0-3.8,0-5.7,0.1
						c-3.9,0.1-7.9,0.2-11.8,0.5c-0.4,0-0.9,0-1.4,0.1c-0.5,0.1-1.1,0.2-1.7,0.6c-0.6,0.4-0.9,1.1-1,1.7c-0.1,0.6-0.2,1.1-0.3,1.6
						c-0.4,2.1-0.7,4-0.6,4.6c0.2-1.1,0.4-2.3,0.7-3.3c-0.1,0.4-0.1,0.9-0.2,1.3c0.1-0.4,0.2-0.9,0.3-1.4c-0.1,0.3-0.1,0.7-0.1,0.8
						c0.1-0.5,0.2-1.3,0.3-1.7c0-0.2,0.2-1.4,0.3-1.7c-0.1,0.9-0.3,1.9-0.3,2.6c0.1-0.3,0.1-0.6,0.2-0.9c0,0.4-0.2,1-0.2,1.2
						c0.1-0.7,0.3-1.4,0.4-2.1c0.1-0.6,0.2-1.2,0.4-1.7c-0.3,0.6-0.4,1.6-0.4,2.1c0.1-0.3,0.1-0.7,0.2-1c0,0,0,0.1,0,0.1
						c0-0.1,0.1-0.3,0.1-0.5c0,0,0,0,0,0l0,0"/>
					<path id="XMLID_31_" class="st33" d="M182.8,128.6c0.1-0.4,0.1-0.8,0.3-1.3c0.1-0.5,0.5-0.9,0.8-1.1"/>
					<path id="XMLID_30_" class="st34" d="M226.1,125.6c0,0,0.6,0,1.7,0.1c1.1,0.1,2.7,0.2,4.6,0.3c1.9,0.1,4.2,0.3,6.7,0.5
						c1.2,0.1,2.6,0.2,3.9,0.4c0.7,0.1,1.4,0.1,2,0.2c0.7,0.1,1.4,0.3,1.9,0.8c0.5,0.5,0.8,1.2,1,1.9c0.2,0.7,0.4,1.4,0.6,2.1
						c0.3,1.4,0.6,2.8,0.9,4.2c0.1,0.7,0.2,1.4,0.3,2.1l0.1,0.6l0,0.2c0,0,0,0.1,0,0.1l-0.3,0c-0.4,0-0.7-0.1-1.1-0.1
						c-1.4-0.2-2.8-0.3-4.1-0.5c-5.3-0.7-9.8-1.7-12.7-2.2"/>
					<path id="XMLID_29_" class="st34" d="M243.6,127.2c0,0,0.2,0,0.7,0.1c0.4,0.1,1.1,0.1,1.8,0.3c0.3,0.1,0.7,0.3,1,0.7
						c0.3,0.3,0.5,0.8,0.7,1.3c0.3,1,0.6,2.2,0.9,3.4c0.3,1.3,0.6,2.6,0.8,4c0.1,0.4,0.1,0.7,0.2,1.1l0.1,0.4l0,0.2
						c0,0.1-0.1,0-0.2,0c-0.7-0.1-1.4-0.1-2.1-0.2c-3-0.3-6.1-0.8-9-1.2"/>
				</g>
			</g>
		</g>
		<g id="XMLID_15_" class="st1">
			<g id="XMLID_16_">
				<defs>
					<rect id="XMLID_17_" x="243.2" y="49.2" width="40.6" height="14.6"/>
				</defs>
				<clipPath id="XMLID_173_">
					<use xlink:href="#XMLID_17_"  style="overflow:visible;"/>
				</clipPath>
				<g id="XMLID_18_" class="st35">
					<defs>
						<rect id="XMLID_19_" x="243.2" y="49.2" width="40.6" height="14.6"/>
					</defs>
					<clipPath id="XMLID_174_">
						<use xlink:href="#XMLID_19_"  style="overflow:visible;"/>
					</clipPath>
					<path id="XMLID_23_" class="st36" d="M245,60.7c0.2-0.4,0.4-0.8,0.5-1.1c0.3-0.8,0.7-1.4,1-2.1c0.4-1,0.9-1.8,1.3-2.8
						c0.2-0.5,0.4-0.9,0.6-1.3c0.1-0.2,0.3-0.3,0.5-0.4c0.2-0.1,0.4-0.2,0.6-0.2c0.9-0.1,1.8,0.4,2.7,1c0.8,0.5,1.6,1,2.4,1.4
						c0.9,0.4,1.9,0.4,2.8-0.1c0.9-0.5,1.4-1.3,1.9-2.1c0.5-0.8,0.9-1.5,1.6-2c1.5-1.2,4-1.4,5.8-0.5c0.3,0.2,0.7,0.4,1,0.7
						c0.4,0.3,0.7,0.8,1,1.3c0.3,0.5,0.8,1,1.2,1.4c0.4,0.4,0.8,0.6,1.1,0.8c-0.8-0.5-1.5-1.2-2.1-2.1c-0.6-0.8-1-1.5-1.7-2
						c0.8,0.5,1.3,1.3,1.9,2.1c0.7,0.9,1.5,1.5,2.3,2.1c1.6,1.2,3.3,2.4,4.9,3.5c-1.5-1.1-3-2.1-4.5-3.2c-0.7-0.5-1.5-1.1-2.2-1.8
						c-0.7-0.7-1.1-1.5-1.7-2.2c-2.3-2.5-7.2-2.1-8.9,1.1c0.3-0.4,0.5-0.9,0.9-1.2c0.4-0.4,0.8-0.7,1.3-1c1-0.5,2-0.7,3.1-0.7
						c1.1,0.1,2.2,0.4,3.1,1c0.9,0.6,1.4,1.7,2.2,2.6c0.8,0.9,1.7,1.5,2.6,2.2c0.9,0.7,1.8,1.3,2.7,2c1.8,1.3,3.5,2.5,5.1,3.5
						c0.5,0.3,1.1,0.7,1.5,0.9c-3.3-2-6.9-4.6-10.4-7.3c-0.4-0.4-0.9-0.7-1.2-1.1c-0.4-0.4-0.7-0.9-1-1.3c-0.3-0.5-0.7-0.9-1.1-1.3
						c-0.4-0.3-0.9-0.6-1.4-0.8c-2.1-0.8-4.6-0.4-6.2,1c-0.7,0.7-1.2,1.5-1.7,2.3c-0.5,0.8-1.1,1.5-1.8,1.7c-0.4,0.1-0.8,0.1-1.2,0
						c-0.4-0.1-0.8-0.2-1.2-0.5c-0.8-0.4-1.6-1-2.4-1.4c-0.5-0.3-1-0.5-1.6-0.6c-0.6-0.1-1.3-0.1-1.9,0.3c-0.6,0.4-0.9,1-1.2,1.4
						l-0.7,1.5c-0.4,1-0.9,1.9-1.3,2.9c-0.8,1.7-2.2,4.8-2.2,5.6c0.3-0.5,0.5-1.2,0.8-1.7c-0.1,0.2-0.1,0.5-0.2,0.7
						c0.1-0.2,0.2-0.5,0.3-0.7c-0.1,0.2-0.1,0.4-0.1,0.4c0.1-0.3,0.3-0.7,0.4-0.9c0-0.1,0.2-0.7,0.3-0.9c-0.1,0.5-0.3,1-0.4,1.4
						c0.1-0.1,0.1-0.3,0.2-0.4c-0.1,0.2-0.2,0.5-0.2,0.6c0.2-0.4,0.3-0.7,0.5-1.1c0.1-0.3,0.3-0.6,0.4-0.9c-0.1,0.4-0.3,0.8-0.4,1.1
						c0.1-0.2,0.2-0.3,0.2-0.5c0,0,0,0,0,0C244.9,61,244.9,60.9,245,60.7C245,60.8,245,60.8,245,60.7L245,60.7"/>
					<path id="XMLID_22_" class="st36" d="M244.2,61c0.2-0.4,0.4-0.9,0.6-1.2"/>
					<path id="XMLID_21_" class="st37" d="M260.7,50.4c0,0,0.3-0.2,0.8-0.5c0.5-0.3,1.4-0.6,2.5-0.6c1.1-0.1,2.4,0.1,3.6,0.9
						c1.2,0.7,1.8,2.2,3,3.2c1.1,1,2.5,1.9,3.7,2.8c1.3,0.9,2.5,1.8,3.7,2.6c2.4,1.7,4.5,3,5.9,3.8"/>
					<path id="XMLID_20_" class="st37" d="M269.1,52c0,0,0.1,0.1,0.2,0.3c0.1,0.2,0.3,0.5,0.6,0.8c0.6,0.7,1.6,1.4,2.7,2.2
						c2.3,1.6,5.2,3.7,8,5.4"/>
				</g>
			</g>
		</g>
		<g id="XMLID_6_" class="st1">
			<g id="XMLID_7_">
				<defs>
					<rect id="XMLID_8_" x="335.6" y="10.3" width="78.2" height="185.7"/>
				</defs>
				<clipPath id="XMLID_175_">
					<use xlink:href="#XMLID_8_"  style="overflow:visible;"/>
				</clipPath>
				<g id="XMLID_9_" class="st38">
					<defs>
						<rect id="XMLID_10_" x="335.6" y="10.3" width="78.2" height="185.7"/>
					</defs>
					<clipPath id="XMLID_176_">
						<use xlink:href="#XMLID_10_"  style="overflow:visible;"/>
					</clipPath>
					<path id="XMLID_14_" class="st39" d="M339.7,27.8c0.8,2.1,1.2,4.3,1.8,6.3c0.3,1.1,0.6,2.2,1,3.1c0.4,1,1,1.9,1.7,2.7
						c0.7,0.8,1.6,1.4,2.6,1.9c0.5,0.2,1,0.4,1.5,0.5c0.5,0.1,1.1,0.3,1.7,0.3c1.4,0.1,2.8-0.1,4.2-0.1c1.4,0,2.7,0.1,3.9,0.8
						c1.2,0.6,2,1.8,2.2,3.1c0.2,1.3,0,2.7,0,4.2c0,1.7,0.5,3.5,1.5,4.8c1,1.4,2.6,2.3,4.2,2.9c1.6,0.6,3.3,0.8,5,1
						c0.8,0.1,1.7,0.1,2.5,0.1l0.5,0l0.4,0l0.9,0l-1.9,1.1c-0.9,0.5-1.7,1.1-2.6,1.6c-1.7,1.1-3.3,2.4-4.7,3.9
						c-1.4,1.5-2.5,3.4-3,5.4c-0.3,1-0.3,2-0.3,3.1c0.1,1,0.4,2,0.8,3c0.5,0.9,1,1.8,1.8,2.5c0.7,0.7,1.6,1.3,2.5,1.7
						c1.9,0.8,4,0.9,5.9,0.5l-0.2-0.5c-2.7,1.3-4.4,4.1-4.8,7c-0.1,0.7-0.1,1.5,0,2.2c0,0.4,0.1,0.7,0.2,1.1
						c0.2,0.2,0.2,0.3,0.4,0.5c0.1,0.1,0.2,0.3,0.3,0.4c0.9,1.1,2,2.1,3,3c1,1,2.1,1.9,3,3c0.2,0.3,0.4,0.5,0.6,0.8
						c0,0.1,0.1,0.3,0.1,0.4l0,0.1c0,0.1,0,0.2,0.1,0.2l0.1,0.3c0.3,0.6,0.4,1.3,0.5,1.9c0.3,2.7-0.5,5.5-0.8,8.4
						c0,0.4-0.1,0.7-0.1,1.1c0,0.3,0,0.8,0.1,1.2c0.2,0.8,0.6,1.5,1,2.1c0.1,0.2,0.2,0.3,0.3,0.5l0.2,0.2l0.1,0.1l0.2,0.2
						c0.4,0.2,0.5,0.2,0.6,0.2l0.5,0.2c0.7,0.2,1.4,0.5,2.1,0.7c2.8,1,5.6,2,8,3.8c1.2,0.9,2.2,2,3,3.2c0.8,1.2,1.3,2.6,1.6,4l0,0
						c0,0,0,0,0,0c0,0,0,0,0,0l0,0.2l0,0.3l0,0.6c0,0.4,0.1,0.8,0.2,1.2c0.2,0.8,0.4,1.6,0.8,2.3c0.7,1.4,1.7,2.7,2.8,3.7
						c1.6,1.6,3.8,3.2,6.2,5c1.2,0.9,2.5,1.8,3.7,2.7c1.2,0.8,1.8,2.2,2,3.7c0.2,1.5,0.2,3.1,0.4,4.7c0.2,1.6,0.6,3.2,1.6,4.4
						c0.2,0.3,0.5,0.6,0.8,0.8c0.1,0.1,0.1,0.1,0.1,0.1l0.1,0l0.1,0.1c0.1,0,0.1,0,0,0l0,0c0,0-0.2,0.1-0.3,0.1
						c-0.1,0.1-0.3,0.1-0.4,0.2c-0.1,0.1-0.3,0.1-0.4,0.2l-0.3,0.1l-0.1,0c0,0,0,0,0,0c-0.1,0-0.1-0.1-0.1-0.1c0,0-0.1,0.1,0,0.1
						c0,0,0.1,0,0.1,0c0,0,0.2-0.1,0.5-0.2c0.3-0.1,0.5-0.2,0.8-0.4l0.3-0.2c0,0,0,0,0,0l-0.1-0.1l-0.1-0.1l-0.1,0c0,0,0,0-0.1-0.1
						l-0.4-0.4l-0.4-0.4l-0.3-0.4c-0.8-1.1-1.1-2.5-1.3-3.8c-0.2-1.3-0.2-2.6-0.3-3.8c-0.1-1.2-0.3-2.4-0.9-3.4
						c-0.1-0.1-0.1-0.3-0.2-0.4l-0.3-0.3c-0.1-0.1-0.2-0.3-0.2-0.3l-0.4-0.3l-1.5-1.1c-2-1.5-4.1-2.9-6-4.4c2.1,1.7,4.4,3.2,6.6,4.8
						l0.8,0.6c0.3,0.2,0.6,0.4,0.7,0.6c0.2,0.2,0.4,0.5,0.6,0.7l0.2,0.4c0.1,0.1,0.1,0.3,0.2,0.4c0.5,1.2,0.6,2.5,0.6,3.9
						c0.1,1.4,0.1,2.8,0.5,4.1c0.2,0.7,0.5,1.4,0.8,2c0.2,0.3,0.4,0.6,0.6,0.9l0.4,0.4l0.2,0.2c0.1,0,0.1,0.1,0.1,0.1l0.2,0.1
						l0.1,0.1l0,0c0,0,0,0,0,0l-0.1,0.1l-0.3,0.1c-0.5,0.3-1.4,0.6-1.4,0.6c-0.1,0-0.3,0-0.2-0.1c0-0.1,0.1-0.2,0.2-0.2
						c0,0,0.4-0.2,0.7-0.2c0.1,0,0.1,0,0.2,0l0.1,0l0,0c0.1,0,0.1,0,0.2,0c0.1,0,0.2,0,0.3,0.1c-0.1,0.1-0.2,0.1-0.3,0.2
						c0,0-0.1,0.1-0.1,0.1l-0.4,0.3c-0.3,0.2-0.6,0.4-0.8,0.6c-1.1,0.9-2.1,1.8-3,2.8c-1.9,2-3.6,4.1-5.5,6c-0.9,1-1.9,1.8-3,2.6
						c-0.5,0.4-1.1,0.7-1.6,1.1c-0.6,0.3-1.2,0.6-1.8,0.8c-2.4,1-5.1,1.4-7.6,2.2c2.4-0.7,4.8-1.1,7.1-1.9c1.1-0.4,2.2-1,3.2-1.6
						c1-0.7,2-1.5,2.8-2.3c3.6-3.3,6.4-7.6,10.5-10.5l0.1-0.1l0.1-0.1l0.2-0.1l0.2-0.1c0,0,0.1,0,0.1-0.1l-0.1,0
						c-0.1,0-0.2-0.1-0.4-0.1c-0.1,0-0.1,0-0.2,0c-0.1,0-0.3,0-0.4,0c-0.1,0-0.3,0.1-0.4,0.1c-0.1,0.1-0.2,0.1-0.3,0.1
						c-0.1,0.1-0.2,0.1-0.3,0.2c0,0.1,0,0.1,0,0.2c0,0,0.1,0.1,0.2,0.1c0.1,0,0.2,0,0.4-0.1c0.2-0.1,0.5-0.2,0.8-0.3l0.4-0.2
						l0.3-0.2l0.2-0.1l0.1,0c0,0-0.1-0.1-0.1-0.1l-0.4-0.3c-1-0.9-1.6-2.1-2-3.3c-0.7-2.5-0.4-5-0.9-7.3c-0.3-1.1-0.8-2.2-1.7-2.9
						c-1-0.7-2-1.4-3-2.2c-2-1.4-4-2.8-5.8-4.4c-0.9-0.8-1.8-1.7-2.6-2.6c-0.8-1-1.4-2-1.9-3.2c-0.4-1.2-0.6-2.4-0.6-3.6
						c-0.1-0.5-0.3-1.1-0.4-1.7c-0.2-0.5-0.4-1.1-0.7-1.6c-1.1-2.1-2.8-3.8-4.7-5.1c-2-1.3-4.2-2.2-6.4-2.9
						c-1.1-0.4-2.2-0.8-3.3-1.1l-0.2-0.1c-0.1,0-0.1-0.1-0.2-0.1l-0.3-0.3c-0.2-0.2-0.4-0.5-0.5-0.7c-0.3-0.5-0.6-1-0.7-1.6
						c-0.2-0.6-0.1-1.1,0-1.7c0.1-0.6,0.1-1.1,0.2-1.7c0.2-1.1,0.4-2.3,0.6-3.4c0.2-1.1,0.3-2.3,0.2-3.4c0-0.6-0.1-1.2-0.3-1.7
						c-0.1-0.3-0.2-0.6-0.3-0.8c0-0.1-0.1-0.3-0.1-0.4c0-0.1,0-0.3-0.1-0.5c0.1,0.1,0.1,0.4,0.1,0.5l0.2,0.4c0.1,0.3,0.2,0.7,0.3,1
						c0.1,0.7,0.2,1.4,0.2,2c0,1.4-0.2,2.7-0.4,4.1c-0.2,1.4-0.5,2.7-0.6,4.1c-0.2,1.4,0.5,2.7,1.4,3.8c0.1,0.1,0.2,0.3,0.3,0.3
						l0.5,0.2l1,0.3c0.7,0.2,1.4,0.4,2,0.7c1.4,0.5,2.7,1,4,1.6c2.6,1.2,5.1,3,6.7,5.5c0.8,1.3,1.3,2.6,1.6,4.1
						c0.2,0.7,0,1.5,0.2,2.2l0.1,0.6l0.2,0.5c0.1,0.4,0.2,0.7,0.4,1c1.3,2.8,3.6,4.8,6,6.6c2.4,1.8,4.9,3.5,7.3,5.4
						c1,1.1,1.5,2.6,1.6,4.1c0.2,1.5,0.2,3,0.4,4.5c0.2,1.5,0.7,3.1,1.8,4.2l0.4,0.4l0.4,0.3l0.4,0.3c-0.1,0.1-0.2,0.1-0.3,0.2
						c-0.5,0.3-1.3,0.7-1.9,0.8c-0.3,0.1-0.6,0.2-0.8-0.1c-0.1-0.1,0-0.3,0.1-0.4c0.1-0.1,0.2-0.2,0.3-0.3c0.2-0.1,0.6-0.3,0.9-0.3
						c0.4-0.1,0.6-0.1,0.9,0c0.1,0,0.3,0,0.4,0.1l0.2,0.1c0,0,0.1,0,0.1,0l-0.1,0.1l-0.7,0.5l-0.9,0.6l-0.9,0.7
						c-2.3,2-4.2,4.3-6.2,6.5c-2,2.2-4.1,4.3-6.6,5.7c-2.6,1.4-5.4,1.9-8.2,2.6c-1.4,0.4-2.8,0.8-4,1.5c-1.3,0.6-2.4,1.6-3.2,2.7
						c-0.5,0.5-0.8,1.2-1.1,1.8c-0.3,0.6-0.6,1.2-0.9,1.9c-0.6,1.2-1.2,2.5-1.9,3.6c-0.7,1.2-1.5,2.3-2.5,3.1
						c-1,0.9-2.2,1.5-3.4,1.9c-1.5,0.5-3.2,0.7-4.8,0.8c-1.6,0.1-3.2,0-4.5,0c2.6,0,5.3,0.2,7.9-0.4c1.3-0.3,2.6-0.7,3.8-1.5
						c1.2-0.7,2.1-1.8,2.9-2.9c1.6-2.3,2.6-4.9,4-7.4c0.7-1.2,1.7-2.3,2.9-3.1c1.2-0.8,2.6-1.3,3.9-1.7c2.8-0.8,5.7-1.2,8.3-2.5
						c2.7-1.2,4.8-3.3,6.9-5.4c2-2.2,3.9-4.5,6.1-6.5c1.1-1,2.4-2,3.4-2.6c0.1-0.1,0-0.1-0.1-0.1c-0.1,0-0.1,0-0.2-0.1
						c-0.2,0-0.3-0.1-0.5-0.1c-0.3,0-0.6,0-1,0.1c-0.4,0.1-0.7,0.2-0.9,0.4c-0.1,0.1-0.3,0.2-0.3,0.3c-0.1,0.1-0.2,0.3,0,0.4
						c0.3,0.2,0.6,0.1,0.9,0c0.3-0.1,0.7-0.2,1-0.4c0.3-0.2,0.7-0.3,1-0.5c0.1-0.1,0.3-0.2,0.4-0.3l-0.4-0.3
						c-0.1-0.1-0.3-0.2-0.4-0.3l-0.4-0.4c-0.3-0.3-0.5-0.6-0.7-0.9c-0.4-0.6-0.7-1.4-0.9-2.1c-0.4-1.5-0.4-3-0.5-4.5
						c-0.1-1.5-0.3-3-1-4.3c-0.2-0.3-0.4-0.6-0.7-0.9c-0.2-0.3-0.6-0.5-0.9-0.7l-1.8-1.3c-1.2-0.9-2.4-1.7-3.6-2.6
						c-2.4-1.8-4.8-3.7-6.3-6.1c-0.8-1.2-1.3-2.6-1.5-4.1l0-1.1c0-0.4-0.2-0.7-0.2-1.1c-0.1-0.7-0.5-1.4-0.7-2.1
						c-0.6-1.3-1.5-2.5-2.5-3.6c-1-1-2.2-1.9-3.5-2.6c-2.5-1.4-5.2-2.3-7.9-3.2l-1-0.3c-0.2-0.1-0.2-0.1-0.3-0.2
						c-0.1-0.1-0.2-0.3-0.3-0.4c-0.4-0.5-0.8-1.1-1-1.7c-0.3-0.6-0.2-1.2-0.1-1.9c0.1-0.7,0.2-1.3,0.3-2c0.4-2.6,1-5.4,0.4-8.2
						c-0.1-0.3-0.2-0.7-0.3-1c-0.1-0.2-0.2-0.4-0.1-0.4c0-0.1,0-0.2-0.1-0.3l-0.1-0.3c-0.3-0.7-0.8-1.2-1.3-1.7
						c-0.9-1-2-1.9-2.9-2.8c-1-0.9-1.9-1.9-2.8-2.9l-0.3-0.4c0,0-0.1-0.2-0.1-0.4c-0.1-0.3-0.1-0.6-0.1-1c0-0.6,0-1.3,0.1-1.9
						c0.4-2.6,2-5,4.3-6.1l3-1.5l-3.3,0.7c-1.1,0.2-2.2,0.3-3.3,0.2c-1.1-0.2-2.1-0.5-3.1-1.1c-1.9-1.1-3.2-3.1-3.6-5.3
						c-0.4-2.2,0.1-4.5,1.2-6.4c1.1-2,2.8-3.6,4.6-5c1-0.8,2.2-1.5,3.3-2.2c0.3-0.2,0.6-0.3,0.9-0.5l1.2-0.7l3.2-1.8
						c-1.3,0.1-2.7,0.1-4.1,0.2l-1.2,0l-1.1,0c-1.4-0.1-2.8-0.3-4.2-0.6c-1.3-0.3-2.6-0.9-3.7-1.7c-1.1-0.8-1.9-1.9-2.3-3.1
						c-0.5-1.3-0.4-2.6-0.3-4.1c0.1-1.4,0.2-3-0.6-4.5c-0.4-0.7-0.9-1.3-1.6-1.8c-0.6-0.5-1.4-0.8-2.1-1c-1.5-0.4-3-0.2-4.4-0.2
						c-1.4,0.1-2.8,0.1-4.1-0.3c-1.3-0.4-2.5-1-3.4-2c-0.8-0.8-1.5-2-2-3.4c-0.5-1.3-0.8-2.8-1.2-4.4c-0.4-1.5-0.8-3.2-1.4-4.7
						c-0.6-1.5-1.4-3-2.1-4.4c-0.7-1.4-1.4-2.7-1.8-4.1c-0.4-1.3-0.5-2.6-0.4-3.8c0.3-2.3,1.4-3.9,1.9-4.7c-1,1.3-1.8,2.8-2,4.5
						c-0.3,1.7,0.1,3.3,0.6,4.8c-0.4-1.1-0.8-2.4-0.8-3.8c0,1.3,0.3,2.8,0.7,3.9c-0.4-1-0.6-2-0.7-2.4c0.2,1.6,1.2,3.7,1.7,4.8
						c0.3,0.7,1.9,3.6,2.3,4.6c-1.1-2.3-2.7-5-3.5-6.9c0.3,0.8,0.7,1.6,1,2.4c-0.5-0.9-1.3-2.8-1.4-3.4c0.6,2.1,1.6,3.8,2.6,5.8
						c0.8,1.6,1.5,3.1,2,4.8c-0.6-2-1.9-4.5-2.6-5.7c0.4,0.9,0.9,1.8,1.3,2.7c-0.1-0.1-0.1-0.2-0.1-0.2c0.2,0.4,0.4,0.9,0.6,1.3
						c0,0,0,0.1,0,0c0,0,0,0,0,0"/>
					<path id="XMLID_13_" class="st39" d="M339,24.7c0.5,1,1,2.2,1.5,3.4c0.4,1.2,0.7,2.5,1,3.4"/>
					<path id="XMLID_12_" class="st40" d="M376.7,111.8c0,0,0,0.1,0,0.3c0,0.2,0,0.5,0,0.9c0.1,0.4,0.3,0.9,0.6,1.4
						c0.2,0.3,0.3,0.5,0.5,0.8c0.1,0.1,0.2,0.3,0.3,0.4c0.1,0.1,0.1,0.1,0.2,0.2l0.3,0.1c1.5,0.5,3.4,1.1,5.5,1.9
						c2.1,0.8,4.5,1.9,6.6,3.9c2.1,1.9,3.7,4.9,3.8,8.2c0.2,1.6,0.9,3.2,1.9,4.6c1,1.4,2.3,2.6,3.7,3.8c1.4,1.2,2.9,2.2,4.5,3.4
						c0.8,0.6,1.6,1.1,2.3,1.7c0.8,0.6,1.7,1.1,2.2,1.9c1.1,1.7,1.1,3.8,1.3,5.8c0.1,2,0.3,4.1,1.6,5.8c0.1,0.2,0.3,0.4,0.5,0.6
						c0.2,0.2,0.4,0.4,0.6,0.5l0.7,0.5c-0.2,0.1-0.5,0.3-0.7,0.4c-0.5,0.3-0.9,0.5-1.4,0.7c-0.5,0.2-1.1,0.4-1.6,0.1
						c-0.2-0.2,0-0.5,0.1-0.7c0.2-0.2,0.4-0.4,0.7-0.5c0.5-0.2,1-0.3,1.6-0.3c0.3,0,0.6,0.1,0.8,0.1c0.2,0.1,0.7,0.1,0.3,0.3
						c-0.5,0.3-1,0.6-1.4,0.9c-3.4,2.5-5.9,5.9-8.9,8.9c-1.5,1.5-3,2.9-4.8,4c-1.8,1.1-3.8,1.8-5.8,2.2c-2,0.5-4,0.9-5.8,1.6
						c-1.8,0.7-3.5,1.9-4.6,3.5c-2.1,3.2-3.1,7-5.8,9.6c-1.3,1.3-3,2.2-4.6,2.6c-1.7,0.5-3.4,0.6-5,0.6c-3.2,0-6.2-0.2-8.8,0.2
						c-1.3,0.2-2.5,0.5-3.5,1c-1,0.5-1.8,1.2-2.5,2"/>
					<path id="XMLID_11_" class="st40" d="M409.7,147.1c0,0,0,0.2,0.1,0.5c0.1,0.3,0.1,0.8,0.2,1.4c0.1,0.6,0.1,1.4,0.2,2.3
						c0.1,0.9,0.1,1.9,0.4,3.1c0.3,1.1,0.8,2.4,1.9,3.4l0.2,0.2l0.2,0.1l0.3,0.2l0.2,0.1l0,0c0,0,0,0,0,0l-0.1,0l-0.3,0.2
						c-0.1,0-0.3,0.2-0.4,0.2c-0.2,0.1-0.3,0.2-0.5,0.2c-0.2,0.1-0.3,0.1-0.5,0.2c-0.1,0-0.3,0.1-0.4,0.1c-0.1,0-0.3,0-0.4,0
						c-0.1,0-0.3-0.1-0.2-0.3c0.1-0.3,0.3-0.4,0.6-0.5c0.3-0.1,0.7-0.3,1.1-0.3c0.3,0,0.6,0,0.8,0.1c0.1,0,0.2,0,0.2,0.1l-0.2,0.1
						l-0.4,0.2c-0.1,0-0.1,0.1-0.2,0.1l-0.2,0.2l-0.6,0.4c-0.7,0.6-1.4,1.2-2.1,1.8c-2.8,2.6-5.2,5.9-8.3,8.7
						c-1.6,1.4-3.3,2.6-5.4,3.4c-2,0.8-4.2,1.2-6.4,1.8c-1.1,0.3-2.2,0.6-3.2,1.1c-0.5,0.2-1,0.5-1.5,0.8c-0.4,0.3-0.9,0.6-1.3,1
						c-1.7,1.5-2.5,3.7-3.5,5.7c-1,2-2,4-3.6,5.6c-0.8,0.8-1.7,1.4-2.7,1.9c-1,0.4-2.1,0.7-3.1,0.9"/>
				</g>
			</g>
		</g>
	</g>
</g>
</svg>
