<?xml version="1.0" encoding="utf-8"?>
<!-- Generator: Adobe Illustrator 19.0.0, SVG Export Plug-In . SVG Version: 6.00 Build 0)  -->
<svg version="1.0" id="Calque_1" xmlns="http://www.w3.org/2000/svg" xmlns:xlink="http://www.w3.org/1999/xlink" x="0px" y="0px"
	 viewBox="0 0 181.3 72" style="enable-background:new 0 0 181.3 72;" xml:space="preserve">
<style type="text/css">
	.st0{clip-path:url(#SVGID_2_);fill:#FFFFFF;}
	.st1{clip-path:url(#SVGID_2_);fill:#E24301;}
	.st2{clip-path:url(#SVGID_2_);fill:#BCCF11;}
</style>
<g>
	<defs>
		<rect id="SVGID_1_" x="6" y="7.2" width="170.2" height="60.8"/>
	</defs>
	<clipPath id="SVGID_2_">
		<use xlink:href="#SVGID_1_"  style="overflow:visible;"/>
	</clipPath>
	<path class="st0" d="M68.1,39.7c-1.4,3.4-1.6,4.2-2.5,7.3c-1.2,4-1.4,4.2-2.4,7.2c-1,3-1.5,5.4-1.5,7.3c0,1.9,0.4,3.3,1.1,4.2
		c0.7,0,1.3-0.1,1.9-0.4c0.6-0.3,1-0.5,1.3-0.8l0.4-0.4l0.6,0.8c-1.2,1.2-2.8,1.7-4.7,1.7c-1.9,0-3.5-0.6-4.6-1.8
		c-1.2-1.2-1.7-2.8-1.7-4.8c0-2,0.4-4.3,1.1-6.8l2.2-6.8c-2.7,3.2-5.2,6.4-7.4,9.3c-4.4,5.9-7.4,9.8-9,11.8l-0.9-0.2L40,45l-3.8,6.7
		c-3.6,6.6-6.7,10.9-9.1,13c-2.4,2.1-5.7,3.2-9.8,3.2c-3.5,0-6.3-1.2-8.6-3.5C6.9,62.5,6,60.2,6,57.5c0-0.5,0-1,0.1-1.5l1,0.1
		C7,56.5,7,57,7,57.5c0,2.5,0.8,4.6,2.4,6.3c2.1,2.2,4.7,3.3,7.9,3.3c3.8,0,6.9-1,9.2-3.1c2.3-2,5.3-6.2,8.8-12.6l8.6-15
		c-3.4-0.1-6.7-0.6-9.9-1.5c-3.2-1-6-1.4-8.5-1.4c-2.5,0-4.6,0.8-6.3,2.5c-1.7,1.7-2.5,3.9-2.5,6.5h-1c0-2.9,0.9-5.3,2.8-7.2
		c1.9-1.9,4.3-2.8,7.3-2.8c2.4,0,5.3,0.5,8.6,1.5c3.3,1,6.9,1.5,10.7,1.5l2,24.8l1-1.3c6.8-8.9,12-15.2,15.7-19.1
		c0,0,13.2-16,23.9-21.9C87.6,18,71.3,31.2,68.1,39.7"/>
	<path class="st0" d="M74.9,60.5c0,1.6,0.5,2.5,1.5,2.5c1,0,1.9-0.8,2.7-2.5s1.2-3.6,1.2-5.9c0-1.7-0.5-2.6-1.5-2.6
		c-1,0-1.9,0.8-2.7,2.3C75.3,56,74.9,58,74.9,60.5 M72.6,62.5c-0.9-0.8-1.3-1.8-1.3-3c0-1.2,0.1-2.2,0.3-3.1
		c0.2-0.8,0.6-1.7,1.1-2.5c0.5-0.8,1.3-1.4,2.3-1.9c1-0.4,2.3-0.7,3.9-0.7c1.5,0,2.8,0.4,3.6,1.2c0.9,0.8,1.3,1.9,1.3,3.2
		c0,2.3-0.6,4.2-1.9,5.6c-1.3,1.4-3.2,2.1-5.6,2.1C74.7,63.7,73.4,63.3,72.6,62.5"/>
	<path class="st0" d="M98,63.1c0.5,0,1-0.3,1.6-0.9l0.5,0.4c-0.1,0.3-0.5,0.5-1,0.8c-0.5,0.2-1.1,0.3-1.7,0.3
		c-1.9,0-2.9-0.8-2.9-2.5c0-0.7,0.2-2,0.6-3.8c0.4-1.8,0.6-3,0.6-3.6c0-0.9-0.4-1.3-1.3-1.3c-0.7,0-1.4,0.4-2,1.3
		c-0.7,0.9-1.2,2.1-1.6,3.6l-1.1,5.7c0.7-0.1,1.2-0.3,1.6-0.9l0.5,0.4c-0.6,0.7-1.4,1.1-2.4,1.1c-1,0-1.7-0.2-2.3-0.7
		c-0.5-0.5-0.8-1.1-0.8-1.8c0-0.3,0.2-1.4,0.5-3.4l1.1-5.7c-0.6,0.1-1.2,0.3-1.6,0.9l-0.5-0.4c0.6-0.7,1.4-1.1,2.4-1.1
		c1,0,1.7,0.2,2.3,0.7c0.5,0.5,0.8,1.1,0.8,2v0.2c0.9-1.9,2.2-2.9,4.1-2.9c1.3,0,2.2,0.3,2.9,1c0.7,0.7,1.1,1.6,1.1,2.8
		c0,0.6-0.2,1.9-0.6,3.7S98,62.2,98,63.1"/>
	<path class="st0" d="M103.7,51.8l0.9-4.5c1.6,0,2.8-0.1,3.5-0.2l0.4-0.1c-0.3,1.4-0.6,3-1,4.8h4l-0.1,0.6h-4
		c-1.1,5.3-1.6,8.5-1.6,9.5c0,0.7,0.4,1,1.1,1c0.7,0,1.4-0.4,2-1.3c0.6-0.9,1-1.8,1.3-2.9l0.6,0.2c-0.8,3.2-2.4,4.8-4.9,4.8
		c-1,0-1.9-0.3-2.6-0.8c-0.7-0.5-1-1.3-1-2.3c0-1,0.4-3.7,1.3-8.3H102l0.1-0.6H103.7z"/>
	<path class="st0" d="M115.3,48.6c-0.4-0.4-0.7-1-0.7-1.6c0-0.6,0.2-1.1,0.7-1.6c0.4-0.4,1-0.7,1.6-0.7c0.6,0,1.2,0.2,1.6,0.7
		c0.5,0.4,0.7,1,0.7,1.6c0,0.6-0.2,1.1-0.7,1.6c-0.5,0.4-1,0.6-1.6,0.6C116.3,49.2,115.7,49,115.3,48.6 M115.7,63.7
		c-1,0-1.7-0.2-2.3-0.7s-0.8-1.1-0.8-1.8c0-0.3,0.2-1.4,0.5-3.3l1.1-5.5h-1.3l0.1-0.6h1.4c1.6,0,2.7-0.1,3.5-0.2l0.4-0.1L116,63.1
		c0.6-0.1,1.2-0.3,1.6-0.9l0.5,0.4C117.4,63.3,116.6,63.7,115.7,63.7"/>
	<path class="st0" d="M129.6,46.8c0-0.7-0.2-1.4-0.5-1.9c-0.4-0.5-0.8-0.8-1.3-0.8c-0.2,0.8-0.7,3.4-1.6,7.7h2
		C129.2,49.7,129.6,48.1,129.6,46.8 M127.6,43.6c0.8,0,1.4,0.3,1.9,0.8c0.5,0.6,0.8,1.4,0.8,2.5s-0.5,2.7-1.4,4.9h1.2l-0.1,0.6h-1.4
		c-0.7,1.7-1.1,3.1-1.1,4H127c0-1.1,0.4-2.4,1.1-4h-1.9c-0.6,3.2-1.5,7.6-2.5,13.2h-3.9l2.5-13.2h-2l0.1-0.6h2l0.5-2.6
		c0.3-2,0.9-3.5,1.6-4.3C125.2,44,126.2,43.6,127.6,43.6"/>
	<path class="st0" d="M133.8,62.5c0.2,0.4,0.6,0.5,1.1,0.5c0.5,0,1-0.3,1.6-0.8c0.7-0.7,1.3-1.6,1.7-2.6c0.1-0.3,0.2-0.9,0.4-1.9
		c0.2-1,0.3-1.8,0.5-2.5c-0.1-0.8-0.3-1.5-0.7-2c-0.4-0.6-0.9-0.9-1.4-0.9c-1,0-1.9,0.9-2.5,2.7c-0.6,1.8-1,3.7-1,5.6
		C133.5,61.5,133.6,62.1,133.8,62.5 M141.1,63.7c-1.9,0-2.9-0.8-3.1-2.4c-0.9,1.6-2.1,2.4-3.6,2.4c-1.4,0-2.6-0.4-3.4-1.2
		c-0.8-0.8-1.3-2-1.3-3.5c0-2.3,0.6-4.2,1.8-5.5c1.2-1.3,2.7-2,4.6-2c1.6,0,2.6,0.7,3.1,2.1c0.1-0.6,0.2-1.2,0.4-1.8
		c1.6,0,2.8-0.1,3.5-0.2l0.4-0.1l-2.2,11.6c0.6-0.1,1.2-0.3,1.6-0.9l0.5,0.4C142.9,63.3,142.1,63.7,141.1,63.7"/>
	<path class="st0" d="M147.5,52.1c-0.5,0-1,0.3-1.6,0.9l-0.5-0.4c0.1-0.3,0.5-0.5,1-0.8c0.5-0.2,1.1-0.3,1.7-0.3
		c1.9,0,2.9,0.8,2.9,2.5c0,0.7-0.2,2-0.6,3.8c-0.4,1.8-0.6,3-0.6,3.6c0,0.9,0.4,1.3,1.3,1.3c0.6,0,1.2-0.3,1.8-1
		c0.6-0.7,1.1-1.7,1.5-2.9l1.3-7.1c1.6,0,2.7-0.1,3.5-0.2l0.4-0.1l-2.1,11.6c0.6-0.1,1.2-0.3,1.6-0.9l0.5,0.4
		c-0.6,0.7-1.4,1.1-2.4,1.1c-1,0-1.7-0.2-2.2-0.7s-0.8-1.1-0.8-1.9c-0.9,1.7-2.2,2.6-4,2.6c-1.3,0-2.2-0.3-2.9-1
		c-0.7-0.7-1.1-1.6-1.1-2.8c0-0.6,0.2-1.9,0.6-3.7C147.2,54.4,147.4,53,147.5,52.1"/>
	<path class="st0" d="M165.5,62.5c0.2,0.3,0.5,0.5,1,0.5c0.4,0,0.9-0.1,1.3-0.4c0.4-0.3,0.7-0.7,1-1.1c0.5-0.8,0.9-1.4,1.1-1.9
		l0.9-4.8c0-0.7-0.3-1.3-0.7-1.8c-0.4-0.5-1.1-0.8-2.1-0.8c-0.7,0-1.3,1-1.9,2.9c-0.6,1.9-0.9,3.8-0.9,5.6
		C165.2,61.5,165.3,62.1,165.5,62.5 M172.7,63.7c-1.9,0-2.9-0.8-3.1-2.3c-0.9,1.5-2.1,2.3-3.6,2.3c-1.5,0-2.6-0.4-3.3-1.2
		c-0.8-0.8-1.2-1.9-1.2-3.2c0-2.4,0.6-4.3,1.8-5.7c1.2-1.4,2.7-2.1,4.6-2.1c1.1,0,1.9,0.3,2.5,0.9c0.3,0.3,0.4,0.6,0.5,0.7l1.7-9
		c-0.6,0.1-1.2,0.3-1.6,0.9l-0.5-0.4c0.6-0.7,1.4-1.1,2.4-1.1c1,0,1.7,0.2,2.3,0.7c0.5,0.5,0.8,1.1,0.8,2c0,0.2,0,0.4-0.1,0.8
		c-1,5.6-2.1,11-3,16c0.6-0.1,1.2-0.3,1.6-0.9l0.5,0.4C174.5,63.3,173.7,63.7,172.7,63.7"/>
	<path class="st1" d="M68.5,24.8c0,0-2.7-3.1-7.6-2.5c0,0,0.8,0.3,0.6,2c-0.2,2.1,0.8,5.6,3.3,7c0,0,2.5,1.4,4.3,0.2
		c-0.4-2.2-3.2-4.8-3.2-4.8c1,0.4,3,2.7,4,4.1C70.7,29.4,71.2,27.3,68.5,24.8"/>
	<path class="st1" d="M85.6,30.3c0,0,3.7-1.3,4.9-5.5c0,0-0.5,0.5-2-0.2c-1.8-0.8-5.2-1-7.3,0.6c0,0-2.1,1.6-1.7,3.6
		c2.1,0.3,5.4-1.2,5.4-1.2c-0.7,0.7-3.5,1.6-5,2.1C80.7,30.7,82.4,31.7,85.6,30.3"/>
	<path class="st1" d="M94,16.4c0,0,2.9-2.7,2.3-7c0,0-0.2,0.7-1.9,0.7c-1.9,0-5.2,1.3-6.4,3.6c0,0-1.3,2.3-0.1,3.9
		c2-0.6,4.4-3.3,4.4-3.3c-0.4,0.9-2.5,2.9-3.7,3.9C89.8,18.8,91.7,19.1,94,16.4"/>
	<path class="st2" d="M108,11.9c0,0,1.9-1.8,1.5-4.7c0,0-0.2,0.5-1.2,0.4c-1.3,0-3.4,0.8-4.2,2.3c0,0-0.8,1.6,0,2.6
		c1.3-0.4,2.9-2.2,2.9-2.2c-0.2,0.6-1.6,1.9-2.4,2.6C105.2,13.4,106.5,13.6,108,11.9"/>
	<path class="st2" d="M79,17.5c0,0-1.2-3.7-6-5c0,0,0.6,0.5-0.4,2c-1.2,1.7-1.7,5.2,0,7.2c0,0,1.7,2.1,4,1.7
		c0.6-2.1-0.9-5.4-0.9-5.4c0.8,0.7,1.6,3.5,1.9,5C79,22.4,80.4,20.7,79,17.5"/>
</g>
</svg>
