<?xml version="1.0" encoding="utf-8"?>
<!-- Generator: Adobe Illustrator 19.0.0, SVG Export Plug-In . SVG Version: 6.00 Build 0)  -->
<svg version="1.0" id="Calque_1" xmlns="http://www.w3.org/2000/svg" xmlns:xlink="http://www.w3.org/1999/xlink" x="0px" y="0px"
	 viewBox="-102 156.3 647 284" style="enable-background:new -102 156.3 647 284;" xml:space="preserve">
<style type="text/css">
	.st0{clip-path:url(#SVGID_2_);fill:#FFFFFF;}
	.st1{clip-path:url(#SVGID_4_);fill:#E24301;}
	.st2{clip-path:url(#SVGID_6_);fill:#FFFFFF;}
	.st3{clip-path:url(#SVGID_8_);fill:#E24301;}
	.st4{clip-path:url(#SVGID_10_);fill:#FFFFFF;}
	.st5{clip-path:url(#SVGID_12_);fill:#E24301;}
	.st6{clip-path:url(#SVGID_14_);fill:#FFFFFF;}
	.st7{clip-path:url(#SVGID_16_);fill:#E24301;}
	.st8{clip-path:url(#SVGID_18_);fill:#FFFFFF;}
	.st9{clip-path:url(#SVGID_20_);fill:#E24301;}
	.st10{clip-path:url(#SVGID_22_);fill:#FFFFFF;}
	.st11{clip-path:url(#SVGID_24_);fill:#E24301;}
	.st12{clip-path:url(#SVGID_26_);fill:#FFFFFF;}
	.st13{clip-path:url(#SVGID_28_);fill:#E24301;}
	.st14{clip-path:url(#SVGID_30_);fill:#FFFFFF;}
	.st15{clip-path:url(#SVGID_32_);fill:#E24301;}
	.st16{clip-path:url(#SVGID_34_);fill:#FFFFFF;}
	.st17{clip-path:url(#SVGID_36_);fill:#E24301;}
	.st18{clip-path:url(#SVGID_38_);fill:#FFFFFF;}
	.st19{clip-path:url(#SVGID_40_);fill:#6B6F22;}
	.st20{clip-path:url(#SVGID_42_);fill:#FFFFFF;}
	.st21{clip-path:url(#SVGID_44_);fill:#6B6F22;}
	.st22{clip-path:url(#SVGID_46_);fill:#FFFFFF;}
	.st23{clip-path:url(#SVGID_48_);fill:#6B6F22;}
	.st24{clip-path:url(#SVGID_50_);fill:#FFFFFF;}
	.st25{clip-path:url(#SVGID_52_);fill:#BCCF11;}
	.st26{clip-path:url(#SVGID_54_);fill:#FFFFFF;}
	.st27{clip-path:url(#SVGID_56_);fill:#BCCF11;}
</style>
<g>
	<g>
		<defs>
			<rect id="SVGID_1_" x="-69" y="184.5" width="583.2" height="212"/>
		</defs>
		<clipPath id="SVGID_2_">
			<use xlink:href="#SVGID_1_"  style="overflow:visible;"/>
		</clipPath>
		<path class="st0" d="M-27.1,396.6c-12.7,0-23.4-4.4-31.8-13.1c-6.7-7.2-10.1-15.9-10.1-26c0-1.8,0.1-3.7,0.4-5.6
			c0.2-1.9,1.8-3.3,3.7-3.3c0.1,0,0.2,0,0.4,0l3.2,0.3c1,0.1,1.9,0.6,2.6,1.4c0.6,0.8,0.9,1.8,0.8,2.8c-0.2,1.5-0.3,2.9-0.3,4.3
			c0,7.4,2.4,13.5,7.3,18.6c6.4,6.6,14.2,9.8,24,9.8c11.9,0,21.6-3.2,28.8-9.4c7.6-6.6,17.3-20.5,29.1-41.5l26.2-45.3
			c-9.6-0.6-19.1-2.3-28.2-5.1c-10.4-3.1-19.7-4.7-27.8-4.7c-7.6,0-13.7,2.4-18.7,7.4c-5.1,5-7.5,11.3-7.5,19.3
			c0,2.1-1.7,3.7-3.7,3.7h-3.2c-2.1,0-3.7-1.7-3.7-3.7c0-10.9,3.6-19.9,10.6-26.9c7-6.9,16.2-10.4,27.2-10.4
			c8.4,0,18.6,1.7,30.1,5.2c10.8,3.2,22.7,4.9,35.2,4.9c1.9,0,3.6,1.5,3.7,3.4l6,73.8c21.5-28.1,38.5-48.6,50.5-60.9
			c2.9-3.5,45.8-54.7,81.7-74.5c0.6-0.3,1.2-0.5,1.8-0.5c1.2,0,2.4,0.6,3.1,1.6c1.1,1.6,0.8,3.8-0.8,5c-0.5,0.4-54.6,44.2-64.8,71.6
			c0,0,0,0.1-0.1,0.1c-4,9.5-5,12.9-7.1,19.8c-0.4,1.3-0.8,2.7-1.3,4.3c-3,9.6-4,12.7-5.7,17.3c-0.6,1.9-1.4,4-2.4,6.9
			c-3.3,9.6-4.9,17.5-4.9,23.5c0,4.4,0.6,7.9,1.8,10.4c1-0.2,2-0.4,3-0.9c2-0.9,2.9-1.6,3.4-2l1.3-1.2c0.7-0.7,1.6-1,2.6-1
			c0.1,0,0.2,0,0.2,0c1,0.1,2,0.6,2.7,1.4l2.1,2.6c1.2,1.5,1.1,3.7-0.3,5c-4.8,4.6-11.1,6.9-18.6,6.9c-7.6,0-13.8-2.4-18.4-7.3
			c-4.6-4.8-6.9-11.1-6.9-18.7c0-7,1.3-15,3.9-24l1.4-4.3c-4.4,5.5-8.6,10.9-12.5,16.1c-14.8,19.6-25.1,32.9-30.4,39.7
			c-0.7,0.9-1.8,1.4-2.9,1.4c-0.3,0-0.6,0-0.9-0.1l-2.9-0.8c-1.5-0.4-2.6-1.7-2.8-3.3l-5.3-63l-7.1,12.3
			c-12.7,22.7-23.1,37.4-31.8,44.8C-0.5,392.7-12.5,396.6-27.1,396.6"/>
	</g>
	<g>
		<defs>
			<rect id="SVGID_3_" x="-69" y="184.5" width="583.2" height="212"/>
		</defs>
		<clipPath id="SVGID_4_">
			<use xlink:href="#SVGID_3_"  style="overflow:visible;"/>
		</clipPath>
		<path class="st1" d="M144.9,297.8c-4.8,11.4-5.4,14.2-8.6,24.4c-4.2,13.5-4.6,14.1-8,24.1c-3.4,10.1-5.1,18.3-5.1,24.7
			s1.2,11.1,3.6,14.2c2.3,0,4.4-0.4,6.4-1.3s3.5-1.8,4.5-2.7l1.3-1.2l2.1,2.6c-4.1,3.9-9.5,5.9-16,5.9c-6.6,0-11.8-2-15.7-6.1
			s-5.8-9.4-5.8-16.1s1.2-14.3,3.7-23l7.3-22.9c-9.1,10.9-17.4,21.4-25,31.4c-14.9,19.7-25.1,32.9-30.4,39.6l-2.9-0.8L50,315.7
			l-13,22.6c-12.4,22.2-22.7,36.8-31,43.9c-8.3,7.1-19.3,10.6-33.1,10.6c-11.7,0-21.4-4-29.1-11.9c-6.1-6.5-9.1-14.3-9.1-23.4
			c0-1.7,0.1-3.4,0.3-5.1l3.2,0.3c-0.2,1.7-0.3,3.2-0.3,4.8c0,8.4,2.8,15.4,8.3,21.2c7,7.3,15.9,11,26.6,11
			c12.9,0,23.3-3.4,31.2-10.3c7.9-6.9,17.9-21,29.9-42.5l29.2-50.6c-11.5-0.2-22.6-1.9-33.4-5.2c-10.8-3.2-20.4-4.9-28.9-4.9
			s-15.6,2.8-21.4,8.5c-5.7,5.7-8.6,13-8.6,22h-3.2c0-9.9,3.2-18,9.5-24.2c6.3-6.2,14.5-9.4,24.6-9.4c8.1,0,17.8,1.7,29,5
			c11.2,3.3,23.3,5,36.3,5l6.8,83.6l3.2-4.3c22.9-29.9,40.5-51.3,53-64.1c0,0,44.6-53.8,80.7-73.8
			C210.9,224.6,155.6,269.1,144.9,297.8"/>
	</g>
	<g>
		<defs>
			<rect id="SVGID_5_" x="-69" y="184.5" width="583.2" height="212"/>
		</defs>
		<clipPath id="SVGID_6_">
			<use xlink:href="#SVGID_5_"  style="overflow:visible;"/>
		</clipPath>
		<path class="st2" d="M180.9,343.2c-1.7,0-3.7,2.1-5.7,5.9c-2.4,4.7-3.6,11.1-3.6,18.9c0,1.1,0.1,4.5,1.3,4.5
			c1.7,0,3.8-2.3,5.6-6.2c2.4-5,3.6-11.1,3.6-18.2c0-4.1-0.9-4.9-0.9-4.9C181.2,343.2,181.1,343.2,180.9,343.2 M172.6,382.3
			c-6.5,0-11.6-1.7-15.2-5c-3.7-3.4-5.5-7.7-5.5-12.8c0-4.3,0.4-8.1,1.3-11.3c0.9-3.2,2.3-6.4,4.2-9.3c2.1-3.3,5.3-5.8,9.5-7.6
			c4-1.7,8.9-2.6,14.6-2.6c6.2,0,11.1,1.7,14.7,4.9c3.7,3.4,5.6,8,5.6,13.6c0,8.8-2.5,16-7.5,21.5
			C189.2,379.4,181.9,382.3,172.6,382.3"/>
	</g>
	<g>
		<defs>
			<rect id="SVGID_7_" x="-69" y="184.5" width="583.2" height="212"/>
		</defs>
		<clipPath id="SVGID_8_">
			<use xlink:href="#SVGID_7_"  style="overflow:visible;"/>
		</clipPath>
		<path class="st3" d="M167.8,367.9c0,5.5,1.7,8.3,5,8.3c3.4,0,6.4-2.8,9-8.3s4-12.1,4-19.8c0-5.8-1.6-8.7-4.9-8.7s-6.3,2.6-9,7.9
			C169.2,352.6,167.8,359.5,167.8,367.9 M159.9,374.6c-2.9-2.6-4.3-6-4.3-10s0.4-7.5,1.1-10.3c0.8-2.9,2-5.6,3.7-8.3
			c1.7-2.6,4.3-4.7,7.9-6.2c3.5-1.5,7.9-2.3,13.1-2.3s9.3,1.3,12.2,4c2.9,2.7,4.4,6.3,4.4,10.9c0,7.8-2.2,14.2-6.6,19
			c-4.4,4.8-10.7,7.2-18.9,7.2C167.1,378.6,162.8,377.2,159.9,374.6"/>
	</g>
	<g>
		<defs>
			<rect id="SVGID_9_" x="-69" y="184.5" width="583.2" height="212"/>
		</defs>
		<clipPath id="SVGID_10_">
			<use xlink:href="#SVGID_9_"  style="overflow:visible;"/>
		</clipPath>
		<path class="st4" d="M243.8,382.3c-8.6,0-13.6-4.4-13.6-12.2c0-2.7,0.7-7.2,2-13.7c1.6-7.8,1.9-10.5,1.9-11.4c0-0.3,0-0.5-0.1-0.6
			c-0.1,0-0.3-0.1-0.7-0.1c-1.4,0-2.9,1.6-3.9,2.9c-1.9,2.6-3.5,6.2-4.8,10.8l-2.3,11.9c0.2,0,0.3,0,0.5,0c0.8,0,1.6,0.3,2.3,0.8
			l1.6,1.2c0.8,0.6,1.3,1.6,1.4,2.6s-0.2,2-0.9,2.8c-2.9,3.3-6.6,5-10.9,5c-4.2,0-7.5-1.1-10.1-3.3c-2.7-2.3-4.1-5.4-4.1-9
			c0-0.6,0-1.8,1.8-12l2.2-11.8c-0.1,0-0.3,0-0.4,0c-0.8,0-1.6-0.2-2.2-0.8l-1.6-1.2c-0.8-0.6-1.4-1.6-1.5-2.6s0.2-2.1,0.9-2.8
			c2.9-3.3,6.7-5,11-5c4.2,0,7.6,1.1,10.1,3.3c0.6,0.5,1.1,1.1,1.6,1.7c4-4,8.8-5,12.6-5c5.2,0,9.5,1.5,12.6,4.5s4.7,7.1,4.7,12.2
			c0,2.5-0.7,6.6-2.1,13.1c-0.5,2.3-1,4.5-1.3,6.3c0.3-0.1,0.5-0.1,0.8-0.1c0.8,0,1.6,0.3,2.3,0.8l1.6,1.2c1.4,1.1,1.9,3.1,1,4.7
			c-0.9,1.8-2.6,3.1-5.2,4.3C248.8,381.8,246.4,382.3,243.8,382.3"/>
	</g>
	<g>
		<defs>
			<rect id="SVGID_11_" x="-69" y="184.5" width="583.2" height="212"/>
		</defs>
		<clipPath id="SVGID_12_">
			<use xlink:href="#SVGID_11_"  style="overflow:visible;"/>
		</clipPath>
		<path class="st5" d="M245.8,376.5c1.7,0,3.5-1,5.4-2.9l1.6,1.2c-0.5,1-1.6,1.8-3.4,2.6c-1.7,0.8-3.6,1.1-5.7,1.1
			c-6.6,0-9.9-2.8-9.9-8.5c0-2.4,0.6-6.7,1.9-12.9c1.3-6.2,1.9-10.2,1.9-12.2c0-3-1.5-4.4-4.4-4.4c-2.4,0-4.7,1.5-6.9,4.4
			c-2.2,3-4,7-5.5,12.2l-3.7,19.3c2.2-0.2,4.1-1.2,5.5-2.9l1.6,1.2c-2.2,2.5-4.9,3.7-8.1,3.7s-5.8-0.8-7.6-2.4
			c-1.8-1.6-2.8-3.6-2.8-6.2c0-1,0.6-4.7,1.7-11.3l3.6-19.1c-2.2,0.2-4,1.2-5.4,2.9l-1.6-1.2c2.2-2.5,4.9-3.7,8.2-3.7
			c3.3,0,5.8,0.8,7.6,2.4c1.8,1.6,2.7,3.8,2.7,6.7v0.6c3-6.5,7.6-9.7,13.9-9.7c4.3,0,7.6,1.2,10,3.5c2.4,2.3,3.6,5.5,3.6,9.5
			c0,2.1-0.7,6.2-2.1,12.3C246.7,368.9,246,373.5,245.8,376.5"/>
	</g>
	<g>
		<defs>
			<rect id="SVGID_13_" x="-69" y="184.5" width="583.2" height="212"/>
		</defs>
		<clipPath id="SVGID_14_">
			<use xlink:href="#SVGID_13_"  style="overflow:visible;"/>
		</clipPath>
		<path class="st6" d="M272.5,382.3c-4.3,0-8-1.2-11-3.5c-3.2-2.5-4.9-6.2-4.9-10.6c0-2.1,0.4-6.9,3.7-24.2h-0.8
			c-1.1,0-2.1-0.5-2.8-1.2c-0.7-0.8-1-1.9-0.9-2.9l0.2-1.9c0.2-1.9,1.8-3.3,3.7-3.3h2.4l2.3-12.2c0.3-1.8,1.9-3,3.7-3
			c5.1,0,8.8-0.2,11.2-0.6l1.3-0.3c0.3-0.1,0.5-0.1,0.8-0.1c1,0,1.9,0.4,2.6,1.1c0.9,0.9,1.3,2.2,1,3.4c-0.8,3.6-1.6,7.5-2.4,11.7
			h8.9c1.1,0,2.1,0.5,2.8,1.2c0.7,0.8,1,1.9,0.9,2.9l-0.2,1.9c-0.2,1.9-1.8,3.3-3.7,3.3h-10.5c-3.7,18.3-4.6,25.3-4.7,27.9
			c1.1,0,2.3-1,3.6-2.8c1.8-2.6,3-5.4,3.8-8.4c0.2-1,0.9-1.8,1.8-2.3c0.6-0.3,1.2-0.5,1.8-0.5c0.4,0,0.8,0.1,1.1,0.2l1.9,0.6
			c1.9,0.6,3,2.5,2.5,4.4C288.8,379,279.6,382.3,272.5,382.3"/>
	</g>
	<g>
		<defs>
			<rect id="SVGID_15_" x="-69" y="184.5" width="583.2" height="212"/>
		</defs>
		<clipPath id="SVGID_16_">
			<use xlink:href="#SVGID_15_"  style="overflow:visible;"/>
		</clipPath>
		<path class="st7" d="M265.2,338.4l2.9-15.3c5.3,0,9.3-0.2,11.9-0.6l1.4-0.3c-1,4.8-2.1,10.2-3.4,16.2h13.4l-0.2,1.9h-13.5
			c-3.6,17.7-5.4,28.4-5.4,32.1c0,2.2,1.2,3.3,3.7,3.3s4.7-1.5,6.7-4.4c2-3,3.5-6.2,4.3-9.6l1.9,0.6c-2.7,10.9-8.2,16.3-16.6,16.3
			c-3.5,0-6.4-0.9-8.7-2.7c-2.3-1.8-3.5-4.4-3.5-7.6c0-3.3,1.5-12.6,4.4-27.9h-5.3l0.2-1.9h5.8V338.4z"/>
	</g>
	<g>
		<defs>
			<rect id="SVGID_17_" x="-69" y="184.5" width="583.2" height="212"/>
		</defs>
		<clipPath id="SVGID_18_">
			<use xlink:href="#SVGID_17_"  style="overflow:visible;"/>
		</clipPath>
		<path class="st8" d="M310,333.5c-3.1,0-5.9-1.1-8.1-3.2s-3.4-4.9-3.4-8c0-3,1.2-5.8,3.4-8c2.2-2.1,5-3.3,8.1-3.3s5.9,1.1,8.1,3.2
			c2.3,2.2,3.5,4.9,3.5,8s-1.2,5.8-3.5,8C315.8,332.4,313.1,333.5,310,333.5 M305.9,382.3c-4.2,0-7.5-1.1-10.1-3.3
			c-2.7-2.3-4.1-5.4-4.1-9c0-0.6,0-1.7,1.8-11.9l2.7-14.1l0,0c-1.1,0-2.1-0.5-2.8-1.3c-0.7-0.8-1-1.9-0.9-2.9l0.2-1.9
			c0.2-1.9,1.8-3.3,3.7-3.3h4.7c5.1,0,8.8-0.2,11.1-0.6l1.4-0.3c0.2-0.1,0.5-0.1,0.8-0.1c1,0,1.9,0.4,2.6,1.1c0.9,0.9,1.3,2.1,1,3.4
			l-6.1,31.7c0.1,0,0.2,0,0.4,0c0.8,0,1.6,0.3,2.3,0.8l1.6,1.2c0.8,0.6,1.3,1.6,1.4,2.6s-0.2,2-0.9,2.8
			C313.9,380.6,310.2,382.3,305.9,382.3"/>
	</g>
	<g>
		<defs>
			<rect id="SVGID_19_" x="-69" y="184.5" width="583.2" height="212"/>
		</defs>
		<clipPath id="SVGID_20_">
			<use xlink:href="#SVGID_19_"  style="overflow:visible;"/>
		</clipPath>
		<path class="st9" d="M304.4,327.6c-1.5-1.4-2.3-3.2-2.3-5.3s0.8-3.8,2.3-5.3s3.4-2.2,5.5-2.2c2.2,0,4,0.7,5.6,2.2s2.3,3.2,2.3,5.3
			s-0.8,3.8-2.3,5.3c-1.6,1.4-3.4,2.2-5.6,2.2C307.8,329.8,306,329,304.4,327.6 M305.9,378.6c-3.2,0-5.8-0.8-7.6-2.4
			c-1.8-1.6-2.8-3.6-2.8-6.2c0-0.9,0.6-4.6,1.7-11.2l3.6-18.5h-4.5l0.2-1.9h4.7c5.3,0,9.3-0.2,11.8-0.6l1.5-0.3l-7.5,39
			c2.2-0.2,4-1.2,5.4-2.9l1.6,1.2C311.8,377.3,309.1,378.6,305.9,378.6"/>
	</g>
	<g>
		<defs>
			<rect id="SVGID_21_" x="-69" y="184.5" width="583.2" height="212"/>
		</defs>
		<clipPath id="SVGID_22_">
			<use xlink:href="#SVGID_21_"  style="overflow:visible;"/>
		</clipPath>
		<path class="st10" d="M349.1,319.7c-0.7,3.4-1.7,8.1-2.8,14c2-4.9,3-8.9,3-12C349.4,321,349.3,320.3,349.1,319.7 M319.8,388.6
			c-1.1,0-2.2-0.5-2.9-1.3c-0.7-0.9-1-2-0.8-3.1l7.5-40.2h-2.1c-1.1,0-2.1-0.5-2.8-1.3c-0.7-0.8-1-1.9-0.9-2.9l0.2-1.9
			c0.2-1.9,1.8-3.3,3.7-3.3h3.6l1.1-5.9c1.3-7.5,3.3-12.8,6.2-16.2c3.1-3.7,7.7-5.6,13.4-5.6c3.6,0,6.8,1.4,9.2,4
			c2.3,2.6,3.5,6.2,3.5,10.9c0,3.3-1,7.6-3,13c0.6,0.2,1.1,0.6,1.5,1c0.7,0.8,1,1.9,0.9,2.9l-0.2,1.9c-0.2,1.9-1.8,3.3-3.7,3.3h-2.3
			c-2,5.2-2.5,8.1-2.5,9.6c0,2.1-1.7,3.7-3.7,3.7h-2c-0.8,0-1.5-0.2-2.1-0.6c-1.6,8.3-3.3,17.9-5.3,28.8c-0.3,1.8-1.9,3.1-3.7,3.1
			h-12.8V388.6z"/>
	</g>
	<g>
		<defs>
			<rect id="SVGID_23_" x="-69" y="184.5" width="583.2" height="212"/>
		</defs>
		<clipPath id="SVGID_24_">
			<use xlink:href="#SVGID_23_"  style="overflow:visible;"/>
		</clipPath>
		<path class="st11" d="M353.1,321.7c0-2.5-0.6-4.6-1.8-6.4c-1.2-1.8-2.7-2.7-4.4-2.7c-0.7,2.7-2.5,11.3-5.3,25.8h6.7
			C351.5,331.5,353.1,326,353.1,321.7 M346.2,310.8c2.6,0,4.7,0.9,6.4,2.8c1.7,1.9,2.5,4.6,2.5,8.4s-1.6,9.2-4.7,16.5h4.1l-0.2,1.9
			h-4.8c-2.5,5.8-3.7,10.3-3.7,13.3H344c0-3.6,1.2-8,3.6-13.3h-6.3c-2.2,10.8-4.9,25.7-8.3,44.6h-13.1l8.3-44.6h-6.6l0.2-1.9h6.7
			l1.7-8.9c1.2-6.8,2.9-11.6,5.4-14.5C338,312.2,341.5,310.8,346.2,310.8"/>
	</g>
	<g>
		<defs>
			<rect id="SVGID_25_" x="-69" y="184.5" width="583.2" height="212"/>
		</defs>
		<clipPath id="SVGID_26_">
			<use xlink:href="#SVGID_25_"  style="overflow:visible;"/>
		</clipPath>
		<path class="st12" d="M377.8,343.8c-2.3,0-4.2,4.1-5.1,6.6c-2,5.6-3,11.5-3,17.6c0,3.4,0.6,4.3,0.6,4.3c0,0.1,0.1,0.2,0.8,0.2
			c0.7,0,1.6-0.6,2.7-1.6c2-1.9,3.6-4.4,4.8-7.4c0.2-0.9,0.6-3,1.1-6c0.6-3.2,1.1-5.8,1.5-7.9c-0.2-1.8-0.7-3.3-1.6-4.5
			C378.7,343.8,378.1,343.8,377.8,343.8 M392,382.3c-5.9,0-9.4-2-11.4-4.4c-3.1,2.9-6.8,4.4-11,4.4c-5.8,0-10.6-1.8-14.1-5.2
			c-3.6-3.5-5.4-8.3-5.4-14.4c0-8.8,2.4-15.8,7-21c4.8-5.3,11-7.9,18.5-7.9c3.4,0,6.4,0.8,8.7,2.4c0.7-0.9,1.8-1.5,3-1.5
			c5,0,8.8-0.2,11.2-0.6l1.3-0.3c0.3-0.1,0.5-0.1,0.8-0.1c1,0,1.9,0.4,2.6,1.1c0.9,0.9,1.3,2.1,1.1,3.4l-6.1,31.7c0.1,0,0.2,0,0.4,0
			c0.8,0,1.6,0.2,2.3,0.8l1.6,1.2c0.8,0.6,1.3,1.6,1.5,2.6c0.1,1-0.2,2.1-0.9,2.8C400.1,380.6,396.3,382.3,392,382.3"/>
	</g>
	<g>
		<defs>
			<rect id="SVGID_27_" x="-69" y="184.5" width="583.2" height="212"/>
		</defs>
		<clipPath id="SVGID_28_">
			<use xlink:href="#SVGID_27_"  style="overflow:visible;"/>
		</clipPath>
		<path class="st13" d="M367.2,374.4c0.8,1.2,2.1,1.8,3.8,1.8s3.5-0.9,5.3-2.7c2.4-2.3,4.3-5.3,5.7-8.9c0.2-0.9,0.6-3,1.2-6.4
			s1.1-6.2,1.6-8.4c-0.2-2.6-1-4.9-2.3-6.8s-2.9-2.9-4.9-2.9c-3.5,0-6.4,3-8.6,9s-3.2,12.3-3.2,18.8
			C366,371,366.4,373.2,367.2,374.4 M392,378.6c-6.4,0-9.8-2.6-10.4-7.9c-3.2,5.3-7.2,7.9-12,7.9s-8.7-1.4-11.5-4.2
			c-2.9-2.8-4.3-6.7-4.3-11.7c0-7.8,2-14,6.1-18.5c4-4.5,9.3-6.7,15.7-6.7c5.3,0,8.8,2.4,10.5,7.1c0.4-2.1,0.8-4.1,1.2-6.2
			c5.3,0,9.3-0.2,11.9-0.6l1.4-0.3l-7.5,39c2.2-0.2,4-1.2,5.4-2.9l1.6,1.2C397.9,377.3,395.2,378.6,392,378.6"/>
	</g>
	<g>
		<defs>
			<rect id="SVGID_29_" x="-69" y="184.5" width="583.2" height="212"/>
		</defs>
		<clipPath id="SVGID_30_">
			<use xlink:href="#SVGID_29_"  style="overflow:visible;"/>
		</clipPath>
		<path class="st14" d="M446.5,382.3c-4.1,0-7.5-1.1-10-3.1c-0.6-0.5-1.1-1-1.6-1.6c-3.3,3.1-7.5,4.7-12.3,4.7
			c-5.2,0-9.5-1.5-12.6-4.5c-3.1-3-4.7-7.1-4.7-12.2c0-2.5,0.7-6.6,2.1-13.2c0.5-2.3,1-4.5,1.3-6.3c-0.3,0.1-0.5,0.1-0.8,0.1
			c-0.8,0-1.6-0.2-2.3-0.8l-1.6-1.2c-1.5-1.1-1.9-3.1-1-4.7c0.9-1.8,2.6-3.1,5.2-4.3c2.2-1,4.6-1.4,7.2-1.4
			c8.6,0,13.6,4.4,13.6,12.2c0,2.7-0.7,7.2-2,13.7c-1.6,7.7-1.9,10.5-1.9,11.4c0,0.3,0,0.5,0.1,0.7c0.1,0,0.3,0.1,0.7,0.1
			c1.2,0,2.4-1.2,3.3-2.2c1.6-1.9,3.1-4.7,4.4-8.3l4.5-23.5c0.3-1.8,1.9-3,3.7-3c5,0,8.7-0.2,11-0.6l1.3-0.3
			c0.3-0.1,0.5-0.1,0.8-0.1c1,0,1.9,0.4,2.6,1c0.9,0.9,1.3,2.1,1.1,3.4l-5.9,31.7c0.1,0,0.3,0,0.4,0c0.8,0,1.6,0.3,2.3,0.8l1.6,1.2
			c0.8,0.6,1.3,1.6,1.4,2.6c0.1,1-0.2,2.1-0.9,2.8C454.5,380.6,450.8,382.3,446.5,382.3"/>
	</g>
	<g>
		<defs>
			<rect id="SVGID_31_" x="-69" y="184.5" width="583.2" height="212"/>
		</defs>
		<clipPath id="SVGID_32_">
			<use xlink:href="#SVGID_31_"  style="overflow:visible;"/>
		</clipPath>
		<path class="st15" d="M413.4,339.6c-1.7,0-3.5,1-5.4,2.9l-1.6-1.2c0.5-1,1.6-1.8,3.4-2.6c1.7-0.8,3.6-1.1,5.7-1.1
			c6.6,0,9.9,2.8,9.9,8.5c0,2.4-0.6,6.7-2,12.9c-1.3,6.2-1.9,10.2-1.9,12.2c0,3,1.5,4.4,4.4,4.4c2.1,0,4.1-1.2,6.1-3.5
			c2-2.3,3.7-5.6,5.1-9.7l4.5-23.8c5.3,0,9.2-0.2,11.7-0.6l1.4-0.3l-7.3,39c2.2-0.2,4-1.2,5.4-2.9l1.6,1.2c-2.2,2.5-4.9,3.7-8.1,3.7
			c-3.2,0-5.8-0.8-7.6-2.3s-2.7-3.6-2.8-6.4c-3,5.8-7.5,8.7-13.4,8.7c-4.3,0-7.6-1.1-10-3.5c-2.4-2.3-3.6-5.5-3.6-9.5
			c0-2.1,0.7-6.2,2.1-12.3C412.5,347.1,413.3,342.6,413.4,339.6"/>
	</g>
	<g>
		<defs>
			<rect id="SVGID_33_" x="-69" y="184.5" width="583.2" height="212"/>
		</defs>
		<clipPath id="SVGID_34_">
			<use xlink:href="#SVGID_33_"  style="overflow:visible;"/>
		</clipPath>
		<path class="st16" d="M477.7,372.5c0.7,0,1.4-0.2,2.1-0.8c1-0.7,1.8-1.5,2.4-2.6l0.1-0.1c1.5-2.2,2.5-4,3.2-5.5l3-15.4
			c-0.2-1.3-0.7-2.5-1.5-3.6c-0.7-0.9-2.3-1.2-3.7-1.2c-0.4,0.4-1.7,1.9-3.3,7.1c-1.9,6.1-2.9,12-2.9,17.7
			C477.2,371,477.5,372.1,477.7,372.5L477.7,372.5 M498.9,382.3c-5.9,0-9.4-1.9-11.4-4.4c-3.9,3.5-8,4.4-11.1,4.4
			c-5.9,0-10.6-1.7-13.9-5.1c-3.3-3.4-5-7.9-5-13.5c0-9,2.3-16.3,7-21.6c4.8-5.5,11-8.3,18.5-8.3c3,0,5.6,0.6,7.9,1.8l3.1-16.1
			c-0.1,0-0.2,0-0.4,0c-0.8,0-1.6-0.2-2.3-0.8l-1.6-1.2c-0.8-0.6-1.3-1.6-1.5-2.6c-0.1-1,0.2-2.1,0.9-2.8c2.9-3.3,6.7-5,11-5
			c4.2,0,7.6,1.1,10.1,3.3c1.8,1.6,4,4.5,4,9.5c0,0.7-0.1,1.7-0.2,3.1c0,0.1,0,0.2,0,0.3c-3,16.2-6,31.8-8.9,46.7c0.1,0,0.2,0,0.3,0
			c0.8,0,1.6,0.3,2.3,0.8l1.6,1.2c0.8,0.6,1.3,1.6,1.4,2.6c0.1,1-0.2,2.1-0.9,2.8C507,380.6,503.2,382.3,498.9,382.3"/>
	</g>
	<g>
		<defs>
			<rect id="SVGID_35_" x="-69" y="184.5" width="583.2" height="212"/>
		</defs>
		<clipPath id="SVGID_36_">
			<use xlink:href="#SVGID_35_"  style="overflow:visible;"/>
		</clipPath>
		<path class="st17" d="M474.5,374.4c0.7,1.2,1.8,1.8,3.2,1.8s2.9-0.5,4.3-1.4c1.4-1,2.5-2.2,3.5-3.7c1.7-2.5,3-4.7,3.7-6.5
			l3.1-16.3c-0.1-2.2-0.9-4.2-2.3-6c-1.4-1.8-3.7-2.7-7-2.7c-2.3,0-4.5,3.2-6.5,9.7s-3,12.7-3,18.8
			C473.4,371.1,473.8,373.3,474.5,374.4 M498.9,378.6c-6.4,0-9.8-2.6-10.4-7.7c-3.2,5.2-7.2,7.7-12.1,7.7c-4.9,0-8.7-1.3-11.3-4
			c-2.6-2.6-3.9-6.3-3.9-10.9c0-8.1,2-14.5,6.1-19.2c4-4.7,9.3-7,15.7-7c3.7,0,6.5,1.1,8.6,3.2c0.9,1.1,1.4,1.9,1.6,2.5l5.8-30.3
			c-2.2,0.2-4,1.2-5.4,2.9l-1.6-1.2c2.2-2.5,4.9-3.7,8.2-3.7s5.8,0.8,7.6,2.4c1.8,1.6,2.7,3.8,2.7,6.7c0,0.6-0.1,1.4-0.2,2.7
			c-3.5,18.9-7,36.9-10.3,54c2.2-0.2,4-1.2,5.4-2.9l1.6,1.2C504.9,377.3,502.1,378.6,498.9,378.6"/>
	</g>
	<g>
		<defs>
			<rect id="SVGID_37_" x="-69" y="184.5" width="583.2" height="212"/>
		</defs>
		<clipPath id="SVGID_38_">
			<use xlink:href="#SVGID_37_"  style="overflow:visible;"/>
		</clipPath>
		<path class="st18" d="M142,275.3c-5.4,0-9.9-2.5-10.4-2.8c-9.3-5.1-14-18.1-12.9-27.1c0.2-2.1,0-3-0.2-3.3
			c-1.2-0.7-1.9-2.1-1.7-3.5c0.2-1.7,1.5-3.1,3.3-3.3c1.5-0.2,3-0.3,4.5-0.3c14.4,0,22.9,8.6,24.2,9.9c12.7,12,7,21.9,4.9,24.6
			c-0.5,0.7-1.2,1.2-2,1.4c-0.2,0.8-0.8,1.5-1.5,2C147.8,274.5,145,275.3,142,275.3"/>
	</g>
	<g>
		<defs>
			<rect id="SVGID_39_" x="-69" y="184.5" width="583.2" height="212"/>
		</defs>
		<clipPath id="SVGID_40_">
			<use xlink:href="#SVGID_39_"  style="overflow:visible;"/>
		</clipPath>
		<path class="st19" d="M146,247.5c0,0-9.2-10.5-25.5-8.5c0,0,2.5,0.9,1.9,6.9c-0.8,7.1,2.8,18.9,11.1,23.5c0,0,8.3,4.8,14.6,0.5
			c-1.4-7.4-10.9-16.2-10.9-16.2c3.3,1.3,10,9.2,13.5,13.7C153.6,263.2,155.2,256.1,146,247.5"/>
	</g>
	<g>
		<defs>
			<rect id="SVGID_41_" x="-69" y="184.5" width="583.2" height="212"/>
		</defs>
		<clipPath id="SVGID_42_">
			<use xlink:href="#SVGID_41_"  style="overflow:visible;"/>
		</clipPath>
		<path class="st20" d="M194.4,272.2c-7.2,0-10.9-4-12.5-6.4c-0.4-0.7-0.6-1.4-0.6-2.2c-0.6-0.5-1-1.2-1.2-2
			c-2-8.8,6.7-15.5,7.1-15.8c4-3.1,9.7-4.9,16.1-4.9c4.6,0,9.1,0.9,12.4,2.5c1.6,0.8,2.6,0.9,2.9,0.9h0.1c0.6-0.4,1.4-0.7,2.1-0.7
			c0.6,0,1.3,0.2,1.8,0.5c1.5,0.8,2.2,2.6,1.8,4.3c-4.4,15.1-17.1,20.4-18.8,21.1C201.5,271.2,197.7,272.2,194.4,272.2L194.4,272.2z
			"/>
	</g>
	<g>
		<defs>
			<rect id="SVGID_43_" x="-69" y="184.5" width="583.2" height="212"/>
		</defs>
		<clipPath id="SVGID_44_">
			<use xlink:href="#SVGID_43_"  style="overflow:visible;"/>
		</clipPath>
		<path class="st21" d="M204,266c0,0,12.5-4.4,16.7-18.7c0,0-1.7,1.9-6.7-0.6c-5.9-2.9-17.7-3.5-24.6,2c0,0-7.2,5.5-5.7,12
			c7,1.1,18.1-4.1,18.1-4.1c-2.4,2.4-11.7,5.5-16.9,7.1C187.4,267.5,193.2,271,204,266"/>
	</g>
	<g>
		<defs>
			<rect id="SVGID_45_" x="-69" y="184.5" width="583.2" height="212"/>
		</defs>
		<clipPath id="SVGID_46_">
			<use xlink:href="#SVGID_45_"  style="overflow:visible;"/>
		</clipPath>
		<path class="st22" d="M219.7,230.5c-2.6,0-5.1-0.7-7.3-2.1c-0.7-0.4-1.2-1-1.4-1.7c-0.7-0.2-1.4-0.7-1.9-1.3
			c-5.3-7.1,0-16.7,0.2-17.1c4.6-8.6,16.4-13.9,24.7-13.9h0.4c1.8,0,2.6-0.3,2.9-0.5c0.7-1.1,1.9-1.8,3.2-1.8c0.1,0,0.3,0,0.4,0
			c1.7,0.2,3.1,1.5,3.3,3.2c1.9,15.3-7.5,25.3-8.9,26.6C230.3,227.7,225,230.5,219.7,230.5"/>
	</g>
	<g>
		<defs>
			<rect id="SVGID_47_" x="-69" y="184.5" width="583.2" height="212"/>
		</defs>
		<clipPath id="SVGID_48_">
			<use xlink:href="#SVGID_47_"  style="overflow:visible;"/>
		</clipPath>
		<path class="st23" d="M232.6,219.4c0,0,9.7-9.1,7.9-23.6c0,0-0.8,2.4-6.3,2.3c-6.5-0.1-17.4,4.2-21.6,12c0,0-4.4,7.9-0.5,13.1
			c6.8-1.9,14.9-11.2,14.9-11.2c-1.2,3.1-8.5,9.7-12.6,13.3C218.1,227.6,224.7,228.3,232.6,219.4"/>
	</g>
	<g>
		<defs>
			<rect id="SVGID_49_" x="-69" y="184.5" width="583.2" height="212"/>
		</defs>
		<clipPath id="SVGID_50_">
			<use xlink:href="#SVGID_49_"  style="overflow:visible;"/>
		</clipPath>
		<path class="st24" d="M271.4,212.6c-2,0-4-0.6-5.8-1.7c-0.5-0.3-0.9-0.7-1.2-1.2c-0.5-0.3-1-0.6-1.3-1.1c-4-5.3-0.6-12.1-0.2-12.8
			c3.2-6.1,11.2-9.8,17.2-9.8c0.2,0,0.8,0,0.8,0c0.4,0,0.7,0,0.9-0.1c0.7-0.9,1.8-1.4,2.9-1.4c0.1,0,0.2,0,0.3,0
			c1.7,0.1,3.1,1.5,3.4,3.2c1.6,10.8-4.8,17.8-5.9,18.9C279,210.6,275.3,212.6,271.4,212.6L271.4,212.6z"/>
	</g>
	<g>
		<defs>
			<rect id="SVGID_51_" x="-69" y="184.5" width="583.2" height="212"/>
		</defs>
		<clipPath id="SVGID_52_">
			<use xlink:href="#SVGID_51_"  style="overflow:visible;"/>
		</clipPath>
		<path class="st25" d="M279.8,204.1c0,0,6.3-6,4.9-15.8c0,0-0.5,1.6-4.2,1.5c-4.4-0.1-11.6,2.6-14.3,7.8c0,0-2.8,5.3-0.1,8.8
			c4.5-1.2,9.8-7.4,9.8-7.4c-0.8,2.1-5.5,6.5-8.2,8.8C270.2,209.4,274.6,210,279.8,204.1"/>
	</g>
	<g>
		<defs>
			<rect id="SVGID_53_" x="-69" y="184.5" width="583.2" height="212"/>
		</defs>
		<clipPath id="SVGID_54_">
			<use xlink:href="#SVGID_53_"  style="overflow:visible;"/>
		</clipPath>
		<path class="st26" d="M171.5,246.9c-8.5,0-14.3-7.1-14.5-7.4c-6.6-8.1-5.2-21.2,0-28.8c0.9-1.4,1.2-2.2,1.3-2.5
			c-0.7-1.1-0.8-2.5-0.1-3.7c0.7-1.2,1.9-2,3.3-2c0.3,0,0.6,0,1,0.1c17.1,4.6,22.1,17.2,22.8,19.1c6.7,15.4-3.2,21.8-6.4,23.5
			c-0.5,0.3-1.1,0.4-1.7,0.4c-0.3,0-0.5,0-0.8-0.1c-0.6,0.6-1.3,1.1-2.2,1.2C173.2,246.8,172.3,246.9,171.5,246.9"/>
	</g>
	<g>
		<defs>
			<rect id="SVGID_55_" x="-69" y="184.5" width="583.2" height="212"/>
		</defs>
		<clipPath id="SVGID_56_">
			<use xlink:href="#SVGID_55_"  style="overflow:visible;"/>
		</clipPath>
		<path class="st27" d="M181.6,223.1c0,0-3.9-12.5-20.3-16.9c0,0,2,1.7-1.3,6.6c-4,5.8-5.9,17.4-0.1,24.3c0,0,5.7,7.2,13.5,5.9
			c2-6.9-3-18-3-18c2.6,2.4,5.3,11.7,6.6,16.8C181.7,239.5,186.4,233.9,181.6,223.1"/>
	</g>
</g>
</svg>
